<svg xmlns="http://www.w3.org/2000/svg" xmlns:xlink="http://www.w3.org/1999/xlink" viewBox="0 0 468.11 499.47"><defs><style>.cls-1{fill:none;}.cls-2,.cls-3{fill:#ffcea9;}.cls-3{stroke:#ffcea9;stroke-miterlimit:10;stroke-width:2.64px;}.cls-4{fill:#e2e3ec;}.cls-5{fill:#88898e;}.cls-6{fill:#232731;}.cls-7{fill:#373d4c;}.cls-8{fill:#ededed;}.cls-9{fill:#8ca525;}.cls-10{fill:#bad839;}.cls-11,.cls-13{fill:#d6d8e5;}.cls-11,.cls-12{opacity:0.4;}.cls-14{fill:#38226d;}.cls-15{fill:#9c73ff;}.cls-16{fill:#8c50ff;}.cls-17{fill:#f4f4f4;}.cls-18{fill:#3a2c6d;}.cls-19{isolation:isolate;}.cls-20{clip-path:url(#clip-path);}.cls-21{fill:#1e222a;}.cls-22{fill:#1f232c;}.cls-23{fill:#20242d;}.cls-24{fill:#22262f;}.cls-25{clip-path:url(#clip-path-2);}.cls-26{fill:#383f4e;}.cls-27{fill:#343b49;}.cls-28{fill:#252933;}.cls-29{clip-path:url(#clip-path-3);}.cls-30{clip-path:url(#clip-path-4);}.cls-31{clip-path:url(#clip-path-5);}.cls-32{clip-path:url(#clip-path-6);}</style><clipPath id="clip-path"><path class="cls-1" d="M95.53,275.87l0,8a2.88,2.88,0,0,0-1.71-2.38,9,9,0,0,0-8.2,0,2.87,2.87,0,0,0-1.67,2.35l0-8a2.88,2.88,0,0,1,1.68-2.35,9,9,0,0,1,8.19,0A2.9,2.9,0,0,1,95.53,275.87Z"/></clipPath><clipPath id="clip-path-2"><path class="cls-1" d="M126.08,276l0,8c0,5.35-3.54,10.7-10.57,14.78-14.14,8.22-37.15,8.21-51.39,0-7.17-4.13-10.74-9.56-10.73-15l0-8c0,5.42,3.57,10.85,10.73,15,14.24,8.22,37.25,8.23,51.4,0C122.55,286.67,126.06,281.32,126.08,276Z"/></clipPath><clipPath id="clip-path-3"><path class="cls-1" d="M94.37,270.87v6.39A2.33,2.33,0,0,0,93,275.35a7.25,7.25,0,0,0-6.57,0,2.29,2.29,0,0,0-1.35,1.89l0-6.39A2.3,2.3,0,0,1,86.42,269,7.27,7.27,0,0,1,93,269,2.32,2.32,0,0,1,94.37,270.87Z"/></clipPath><clipPath id="clip-path-4"><path class="cls-1" d="M118.9,270.94v6.39c0,4.3-2.84,8.6-8.48,11.88-11.36,6.59-29.83,6.59-41.27,0-5.75-3.32-8.62-7.68-8.61-12l0-6.39c0,4.35,2.86,8.71,8.61,12,11.43,6.6,29.91,6.6,41.26,0C116.07,279.54,118.89,275.24,118.9,270.94Z"/></clipPath><clipPath id="clip-path-5"><path class="cls-1" d="M93.09,267.8l0,4.62a1.7,1.7,0,0,0-1-1.39,5.25,5.25,0,0,0-4.76,0,1.65,1.65,0,0,0-1,1.37v-4.63a1.68,1.68,0,0,1,1-1.37,5.23,5.23,0,0,1,4.75,0A1.7,1.7,0,0,1,93.09,267.8Z"/></clipPath><clipPath id="clip-path-6"><path class="cls-1" d="M110.83,267.85v4.62c0,3.11-2.06,6.22-6.14,8.59-8.22,4.78-21.58,4.77-29.85,0-4.16-2.41-6.24-5.56-6.23-8.71v-4.62c0,3.15,2.07,6.3,6.23,8.7,8.28,4.78,21.64,4.78,29.86,0C108.78,274.06,110.82,271,110.83,267.85Z"/></clipPath></defs><title>fitness_SVG</title><g id="Слой_2" data-name="Слой 2"><g id="Слой_1-2" data-name="Слой 1"><path class="cls-2" d="M152.17,61.2c-2.21-5.57-2-11.76-1.71-17.74a2,2,0,0,1,.13-.76,2.92,2.92,0,0,1,.72-.81,6.32,6.32,0,0,0,1.28-2.22q2-4.87,3.69-9.83a8.63,8.63,0,0,0,.68-3.42c-.14-1.84-1.41-3.38-2.62-4.78-4.4,1.39-9.11,2.77-12.12,6.26a14.36,14.36,0,0,0-3.38,10.68,7.72,7.72,0,0,0,.42,2,11.6,11.6,0,0,1,.54,1.38,5.56,5.56,0,0,1,.12,1.53c0,5.18.18,10.36.12,15.54C143.87,60.23,148.22,60.43,152.17,61.2Z"/><path class="cls-3" d="M140.48,84.18l.07,1.48,0,.74,0,.43.06.65a16.4,16.4,0,0,0,4.2,9.41c.28.31.64.66.9.91l.53.51,1.07,1,8.56,8.19c5.77,5.4,11.52,10.81,17.41,16.08L183.25,113c-5.64-5.54-11.41-10.94-17.17-16.35l-8.72-8L155.57,87a2.36,2.36,0,0,1-.4-.54,2.41,2.41,0,0,1-.24-.65l0-.09a2.86,2.86,0,0,1,0-.3l-.06-.74-.14-1.48c-.71-7.87-1.66-15.72-2.45-23.58-.41-3.94-.82-7.87-1.14-11.8-.19-2-.31-3.94-.46-5.91-.33-4.26-10.29-4.24-9.88,2.42C140.75,44.36,140.14,76.29,140.48,84.18Z"/><path class="cls-4" d="M117.19,10.28h0a1.65,1.65,0,0,1-.14-.41h0a2.67,2.67,0,0,1,0-.5,3.48,3.48,0,0,1,0-.55v0a5.29,5.29,0,0,1,.13-.54V8.2c.06-.17.12-.34.19-.5s.05-.11.07-.16.13-.28.21-.41l0-.06c.1-.17.21-.33.32-.49h0a4.43,4.43,0,0,1,.38-.46h0a3.16,3.16,0,0,1,.42-.4h0a2.91,2.91,0,0,1,.46-.32,2.57,2.57,0,0,1,.45-.21h0a1.69,1.69,0,0,1,.41-.09,1.29,1.29,0,0,1,.28,0h.13a1.48,1.48,0,0,1,.35.13l-3.37-2a1.17,1.17,0,0,0-.35-.14h-.13a1.22,1.22,0,0,0-.27,0h0a.63.63,0,0,0-.19,0l-.16,0,0,0h0l-.07,0-.12,0-.12.06-.11.06h0l-.08.05-.1.07-.1.07-.1.07-.08.06h0l-.1.08-.1.09-.09.09a.94.94,0,0,0-.1.1l0,0h0a.23.23,0,0,0-.07.07l-.1.11-.1.12a1.13,1.13,0,0,1-.1.13l0,0h0l-.07.1s-.07.1-.1.16l-.12.19,0,0,0,.06-.1.18c0,.07-.07.15-.11.23s0,.1-.07.16l0,.06c0,.11-.09.23-.13.34s0,.06,0,.1l0,0,0,.1a1.46,1.46,0,0,0,0,.2,1.62,1.62,0,0,0,0,.19v.07s0,.07,0,.1a.77.77,0,0,0,0,.15s0,.09,0,.14v.37a.41.41,0,0,1,0,.11s0,.07,0,.1,0,0,0,.08h0s0,.07,0,.1l0,.1,0,.09,0,.09h0a.16.16,0,0,0,0,.07.41.41,0,0,0,0,.09l.06.09,0,.06v0h0a.47.47,0,0,0,.1.1l.13.1h0l3.37,2.05a1,1,0,0,1-.28-.22v0A1.38,1.38,0,0,1,117.19,10.28Z"/><path class="cls-5" d="M119.31,5.37c1.27-.73,2.31-.14,2.31,1.32a5.06,5.06,0,0,1-2.3,4c-1.27.73-2.31.15-2.31-1.31A5.06,5.06,0,0,1,119.31,5.37Z"/><path class="cls-6" d="M131.22,3.79l.1,0-5.2-3a3.32,3.32,0,0,0-.64-.27l-.19-.06a4.82,4.82,0,0,0-.57-.1l-.18,0a4.24,4.24,0,0,0-.71,0h-.08l-.13,0-.37.06-.48.13h0l-.41.14L122,.91h0l-.35.16-.33.18-.09.05-.23.14-.31.2a2.73,2.73,0,0,0-.3.21,3.15,3.15,0,0,0-.29.22l0,0h0l-.26.2-.29.25-.29.26-.26.25h0l0,0-.3.3-.3.32-.29.34-.11.13,0,.05-.15.18-.3.39-.31.42-.14.21,0,.09-.12.17c-.12.18-.24.37-.35.56l-.26.46-.12.23a1.29,1.29,0,0,0-.09.16c-.16.3-.29.6-.43.9,0,.12-.11.23-.16.35l0,.05q-.21.53-.39,1l-.09.28a1.21,1.21,0,0,1-.05.18c0,.09-.06.19-.08.28s-.11.42-.16.63-.07.36-.11.54v0c0,.17-.06.34-.08.51s0,.3,0,.45a.34.34,0,0,1,0,.1v.07c0,.09,0,.17,0,.25s0,.26,0,.39,0,.24,0,.35h0c0,.12,0,.23,0,.35s0,.22,0,.33l0,.25v.06l.06.31a2.46,2.46,0,0,0,.07.29,1.05,1.05,0,0,0,0,.19v0a.14.14,0,0,1,0,.06c0,.1.07.19.1.28l.12.28s0,.06,0,.1l0,.05.06.13.16.27.14.2,0,0,0,0,.24.28c0,.06.11.11.16.16l.08.07,0,.06a3.19,3.19,0,0,0,.42.3l.06,0h0l5.21,3-.06,0a4.08,4.08,0,0,0,3.42.25,7.71,7.71,0,0,0,1.56-.7,15.45,15.45,0,0,0,6.72-10.06C133.73,7,132.91,4.7,131.22,3.79Zm-2.4-.35.13,0H129l-.23,0Zm1.86.12h0l-.07,0Zm-.9-.17h-.09s0,0,.05,0ZM119.51,16.54v-.17c0,.1,0,.2,0,.3,0-.05,0-.09,0-.13Zm0-1.07V15.4c0,.1,0,.2,0,.3v-.16A.2.2,0,0,1,119.54,15.47Zm.95,4.3,0,0,0-.09.11.16Zm-.39-.64,0-.05s0,0,0-.08a2,2,0,0,0,.1.21Zm-.3-.77,0,0v0l.06.18Zm-.2-.86v0a.57.57,0,0,0,0-.13c0,.06,0,.13,0,.19Z"/><path class="cls-7" d="M133,3.37a7.9,7.9,0,0,1,1.2-.27l.17,0a6.75,6.75,0,0,1,1.09,0l.24,0a4.89,4.89,0,0,1,.78.14l.27.08a5.27,5.27,0,0,1,.88.37l-5.21-3a4.5,4.5,0,0,0-.87-.38l-.27-.07a4.89,4.89,0,0,0-.78-.14l-.24,0a6.6,6.6,0,0,0-1,0l-.1,0-.18,0-.52.08-.66.18h0c-.19.05-.37.12-.56.19l-.51.21h0l-.48.23-.45.25-.13.07-.31.18-.42.27-.41.29-.41.3,0,0,0,0-.34.27-.4.34-.4.36-.36.35h0l0,0c-.14.13-.28.27-.41.41s-.27.29-.41.44l-.4.47-.15.18-.06.07a2.43,2.43,0,0,0-.2.25l-.42.53-.42.58L119.8,7l-.08.11-.16.24-.48.77-.36.64-.17.31-.12.22c-.21.4-.39.82-.58,1.24-.07.16-.15.31-.22.48l0,.06q-.3.72-.54,1.44c0,.13-.07.26-.11.39s0,.16-.08.24-.08.25-.11.37q-.12.43-.21.87t-.15.75v.05c0,.23-.08.46-.11.68s0,.42-.06.63a.57.57,0,0,0,0,.13.31.31,0,0,0,0,.1c0,.12,0,.23,0,.35s0,.36,0,.53,0,.32,0,.48h0c0,.16,0,.32,0,.47s0,.31,0,.45,0,.23,0,.34v.1c0,.14,0,.28.07.42l.1.4c0,.09,0,.17.07.25l0,.06,0,.09c0,.13.08.26.13.39s.11.25.16.38l.06.12,0,.07.09.19c.07.12.14.25.22.37l.18.26,0,.06,0,.05a4,4,0,0,0,.32.38,2.39,2.39,0,0,0,.23.22.94.94,0,0,0,.1.1l.07.07a4.57,4.57,0,0,0,.57.41l.09.06,5.21,3a4.38,4.38,0,0,1-.74-.54.47.47,0,0,1-.1-.1,4.61,4.61,0,0,1-.59-.65.21.21,0,0,0,0-.06,6.45,6.45,0,0,1-.49-.81l0-.08a6.67,6.67,0,0,1-.39-1v0a8.09,8.09,0,0,1-.26-1.13v0a8.69,8.69,0,0,1-.12-1.28h0a12.56,12.56,0,0,1,0-1.36s0-.06,0-.1c0-.48.1-1,.19-1.49s.28-1.33.47-2l.08-.24a19.43,19.43,0,0,1,.68-1.89l.22-.48c.22-.49.45-1,.7-1.46l.18-.31c.31-.56.64-1.12,1-1.65A1,1,0,0,0,125,10q.59-.86,1.23-1.65l.06-.07a20.39,20.39,0,0,1,1.39-1.52l0,0a18.17,18.17,0,0,1,1.5-1.32l0,0a15.16,15.16,0,0,1,1.58-1.07c.36-.2.71-.38,1.07-.54h0C132.24,3.62,132.59,3.48,133,3.37Z"/><path class="cls-6" d="M130.81,4.32a10.31,10.31,0,0,1,2.14-1c5.11-1.6,8.32,2.41,7.16,9-1,5.63-4.89,11.3-9.21,13.8a11,11,0,0,1-2.15,1c-5.11,1.59-8.31-2.42-7.15-9C122.59,12.5,126.49,6.82,130.81,4.32Z"/><path class="cls-4" d="M129.32,19h0a3.25,3.25,0,0,1-.2-.6h0a4.32,4.32,0,0,1-.07-.74,5.79,5.79,0,0,1,.07-.82v0a7.16,7.16,0,0,1,.19-.8l0-.08a6.61,6.61,0,0,1,.28-.74c0-.08.07-.16.1-.23s.2-.41.31-.61a.56.56,0,0,1,0-.08,5.11,5.11,0,0,1,.48-.73v0a7.59,7.59,0,0,1,.57-.68v0a7,7,0,0,1,.63-.59h0a7.51,7.51,0,0,1,.68-.47,3.7,3.7,0,0,1,.68-.31h0a3,3,0,0,1,.61-.14,2.61,2.61,0,0,1,.4,0,.66.66,0,0,1,.2,0,1.55,1.55,0,0,1,.52.19l-1-.61a1.79,1.79,0,0,0-.52-.19h-.19a1.88,1.88,0,0,0-.41,0h0l-.28,0-.23.07-.08,0h0l-.1,0-.18.07-.18.09-.17.09-.05,0-.11.06-.16.1-.15.11-.15.11-.11.09h0l-.15.13-.14.13-.14.13-.15.15,0,0h0l-.1.11-.15.16-.15.18a2.43,2.43,0,0,0-.14.2l0,0v0l-.11.15-.16.23-.17.28,0,.07-.05.09-.15.26c-.06.11-.1.23-.16.34s-.07.15-.1.23l0,.09a5.17,5.17,0,0,0-.18.51s0,.1-.05.14l0,.08a1,1,0,0,0,0,.14c0,.11-.06.21-.08.31l-.06.28a.17.17,0,0,1,0,.07v0a.59.59,0,0,0,0,.14l0,.22c0,.07,0,.14,0,.21a1.21,1.21,0,0,0,0,.19v.19a1,1,0,0,1,0,.17c0,.06,0,.11,0,.16s0,.11,0,.16,0,.07,0,.11h0v0l0,.14,0,.15,0,.13.06.14v0h0l.06.11s0,.08.07.13l.1.13.08.09v0l0,0,.15.14.2.15,0,0,1,.6a1.86,1.86,0,0,1-.41-.33v0A2,2,0,0,1,129.32,19Z"/><path class="cls-5" d="M132.46,11.71c1.9-1.09,3.43-.22,3.43,2a7.46,7.46,0,0,1-3.41,5.89c-1.88,1.09-3.42.22-3.43-1.94A7.55,7.55,0,0,1,132.46,11.71Z"/><path class="cls-4" d="M165.73,31.16h0L134.52,13a1.33,1.33,0,0,0-.35-.13H134a1.22,1.22,0,0,0-.27,0h0l-.19,0-.16,0,0,0h0l-.07,0-.13.05-.12,0-.11.06,0,0-.08.05-.1.07-.1.07-.1.07-.08.06h0l-.1.08-.09.09-.1.09-.1.1,0,0h0l-.07.07-.09.11-.1.12a.64.64,0,0,0-.1.13l0,0h0a.36.36,0,0,0-.07.1l-.11.15-.12.19,0,.05,0,.06-.1.18a1.6,1.6,0,0,0-.1.23.8.8,0,0,0-.08.16l0,.06a3.4,3.4,0,0,0-.12.34l0,.1,0,0,0,.09c0,.07,0,.14-.05.21s0,.13,0,.19v.07s0,.06,0,.1,0,.09,0,.14,0,.1,0,.14v.26a.49.49,0,0,0,0,.12.45.45,0,0,0,0,.11s0,.07,0,.1,0,.05,0,.08h0v0a.44.44,0,0,1,0,.1l0,.1,0,.09a.36.36,0,0,1,0,.09h0l0,.07a.41.41,0,0,0,0,.09l.06.09.06.06h0l0,0,.1.1.14.1h0l31.21,18.14c-.06,0-.1-.09-.15-.13a1.52,1.52,0,0,0,1.8,0,5.1,5.1,0,0,0,2.3-4A1.62,1.62,0,0,0,165.73,31.16Zm-1.16-.06a.61.61,0,0,0,.13,0,.58.58,0,0,1-.14,0Zm-2.39,5.44a1.13,1.13,0,0,1-.12-.18,1.57,1.57,0,0,0,.12.19Zm-.21-.31h0a2.14,2.14,0,0,1-.09-.27c0,.09.05.19.09.28Zm-.13-.43a2.46,2.46,0,0,1-.05-.49,2.57,2.57,0,0,0,.05.5Z"/><path class="cls-7" d="M172.51,26.44a8.18,8.18,0,0,1,1.2-.27l.18,0a5.77,5.77,0,0,1,1.09,0l.24,0a6.34,6.34,0,0,1,.78.14l.26.08a4.33,4.33,0,0,1,.88.38l-5.2-3a4.33,4.33,0,0,0-.88-.38l-.26-.07a4.81,4.81,0,0,0-.79-.14l-.23,0a6.5,6.5,0,0,0-1,0h-.11a1.08,1.08,0,0,1-.19,0l-.5.09c-.21.05-.43.1-.65.17h0l-.56.2-.51.21h0l-.48.23-.45.25-.13.07-.31.18-.42.28c-.14.09-.28.18-.41.28l-.41.3,0,0,0,0-.34.27-.4.34-.4.37-.36.33,0,0,0,0c-.14.13-.28.27-.41.41s-.27.29-.41.44l-.4.47-.15.17-.06.07-.2.25-.42.54-.41.57c-.07.1-.13.2-.2.29l-.07.12-.17.24c-.16.25-.32.5-.48.77s-.23.42-.35.63a3.07,3.07,0,0,0-.17.31c0,.07-.09.14-.13.22-.2.4-.38.81-.56,1.22-.08.16-.17.33-.24.5l0,.07c-.2.47-.38,1-.54,1.44l-.11.38c0,.08,0,.16-.07.24l-.12.39c-.08.29-.15.57-.21.86s-.11.49-.15.74v0c0,.24-.07.46-.1.69s0,.42-.07.63a.53.53,0,0,0,0,.13.38.38,0,0,1,0,.1c0,.11,0,.23,0,.35s0,.35,0,.52,0,.33,0,.49h0c0,.16,0,.32,0,.48s0,.3,0,.45,0,.23,0,.35v.08c0,.14,0,.28.08.42l.09.4c0,.09.05.18.08.26l0,.06s0,.06,0,.08.09.26.14.39.1.26.16.38l.06.13a.16.16,0,0,0,0,.07,1,1,0,0,0,.09.18c.06.13.14.25.21.37s.13.18.19.27l0,.06,0,.05c.11.13.21.26.33.38a2.39,2.39,0,0,0,.23.22.94.94,0,0,0,.1.1l.07.07a4.57,4.57,0,0,0,.57.41l.09.06,5.2,3a4.17,4.17,0,0,1-.73-.54l-.1-.09a5.34,5.34,0,0,1-.59-.66l0,0a6.13,6.13,0,0,1-.49-.82s0-.05,0-.08a6.66,6.66,0,0,1-.38-1l0,0a8.08,8.08,0,0,1-.25-1.13v0a12.65,12.65,0,0,1-.12-1.28h0c0-.44,0-.89,0-1.36a.34.34,0,0,0,0-.1c0-.48.1-1,.19-1.49s.29-1.33.48-2c0-.08.05-.16.07-.24.2-.63.42-1.27.68-1.89l.24-.5c.22-.49.44-1,.69-1.44l.17-.31c.31-.56.64-1.11,1-1.64l.07-.11q.58-.87,1.23-1.65l.06-.08c.45-.53.91-1,1.4-1.52h0a16.78,16.78,0,0,1,1.51-1.32l0,0a15.16,15.16,0,0,1,1.58-1.07c.36-.2.71-.38,1.07-.54h0C171.8,26.69,172.16,26.55,172.51,26.44Z"/><path class="cls-6" d="M170.37,27.39a10.55,10.55,0,0,1,2.14-.95c5.13-1.61,8.33,2.41,7.17,9-1,5.64-4.9,11.31-9.23,13.81a11.12,11.12,0,0,1-2.13.95c-5.11,1.59-8.32-2.42-7.16-9C162.16,35.55,166.05,29.89,170.37,27.39Z"/><path class="cls-7" d="M177.86,31.93a4.24,4.24,0,0,1,.79,0l.18,0a3.45,3.45,0,0,1,.56.1l.2.06a3.52,3.52,0,0,1,.63.27l-5.2-3a3.35,3.35,0,0,0-.64-.28l-.19-.05a3.39,3.39,0,0,0-.57-.1l-.17,0a4.36,4.36,0,0,0-.72,0h-.07l-.13,0a2.5,2.5,0,0,0-.38.06,4.27,4.27,0,0,0-.48.13h0l-.4.14-.38.16-.36.17-.33.17-.09.06-.23.13-.31.2-.3.21-.3.22,0,0h0l-.26.2-.29.25-.29.27-.26.24,0,0,0,0-.29.3-.3.32-.3.34a1.47,1.47,0,0,0-.1.13l-.05,0-.15.18-.3.39-.3.42c-.05.07-.1.14-.14.21l-.06.09-.12.17c-.12.19-.24.37-.35.56l-.26.46-.12.23-.09.16c-.15.29-.28.59-.42.89-.05.12-.12.24-.17.37l0,0c-.14.35-.28.7-.39,1l-.09.28a1.09,1.09,0,0,1-.05.17c0,.1-.06.19-.08.28s-.11.42-.16.63-.07.36-.11.54v0c0,.17-.06.34-.08.5s0,.31,0,.46V41c0,.09,0,.17,0,.25s0,.26,0,.39,0,.24,0,.36h0c0,.11,0,.23,0,.34a1.84,1.84,0,0,0,0,.33l0,.25V43l.06.3c0,.1,0,.2.07.3a1.05,1.05,0,0,1,0,.19l0,0s0,0,0,.06.07.19.1.28l.12.28a.41.41,0,0,0,.05.09l0,.06a.83.83,0,0,0,.07.13c0,.09.1.18.16.27a1.27,1.27,0,0,0,.13.19l0,.05,0,0a3.11,3.11,0,0,0,.23.28,1.29,1.29,0,0,0,.17.16l.07.07.06,0a2,2,0,0,0,.41.3l.07,0,5.2,3a3.43,3.43,0,0,1-.54-.4l-.07-.07a3.87,3.87,0,0,1-.43-.47l0,0a6,6,0,0,1-.36-.6l0,0a5.66,5.66,0,0,1-.28-.72v0a5.17,5.17,0,0,1-.19-.82v0a9.15,9.15,0,0,1-.08-.94h0c0-.32,0-.65,0-1,0,0,0,0,0-.07,0-.35.07-.71.14-1.09a12.51,12.51,0,0,1,.34-1.44l.06-.18a13.29,13.29,0,0,1,.49-1.38l.18-.37c.16-.35.32-.71.5-1.05a2.53,2.53,0,0,1,.13-.22q.33-.61.72-1.2l.06-.08a13.55,13.55,0,0,1,.9-1.21l0-.05c.33-.39.67-.77,1-1.11h0a11,11,0,0,1,1.1-1v0a11.77,11.77,0,0,1,1.16-.78,8.23,8.23,0,0,1,1.56-.7,5.93,5.93,0,0,1,.87-.19Z"/><path class="cls-6" d="M175.3,32.84a8.23,8.23,0,0,1,1.56-.7c3.73-1.16,6.06,1.77,5.22,6.55a15.42,15.42,0,0,1-6.73,10.06,7.88,7.88,0,0,1-1.55.7c-3.73,1.16-6.07-1.76-5.22-6.55A15.44,15.44,0,0,1,175.3,32.84Z"/><path class="cls-4" d="M173.36,44.44h0a2.72,2.72,0,0,1-.19-.61h0a4.23,4.23,0,0,1-.07-.74,5.79,5.79,0,0,1,.07-.82v0c0-.26.11-.53.19-.8l0-.07a7.61,7.61,0,0,1,.28-.75,2.4,2.4,0,0,1,.11-.23c.09-.2.19-.41.3-.6l0-.09c.15-.25.31-.5.48-.73v0a7.59,7.59,0,0,1,.57-.68v0a7,7,0,0,1,.63-.59h0a6,6,0,0,1,.68-.48,4.51,4.51,0,0,1,.68-.31h0a2.78,2.78,0,0,1,.61-.13,2.64,2.64,0,0,1,.4,0h.2a1.65,1.65,0,0,1,.52.2l-1-.61a1.86,1.86,0,0,0-.53-.19h-.19a2.61,2.61,0,0,0-.4,0h0l-.29,0-.23.06-.07,0h0l-.11,0-.18.08-.17.08-.17.09-.05,0-.11.07-.16.09-.15.11-.14.11-.12.09h0l-.14.13-.14.12-.15.14-.14.15,0,0v0l-.1.1-.14.16-.15.18-.15.19,0,0,0,0-.1.14-.16.23-.17.28a.3.3,0,0,0,0,.08l-.05.08-.15.26-.15.34a2.56,2.56,0,0,0-.11.24l0,.09a5.17,5.17,0,0,0-.18.51s0,.09-.05.14l0,.08a.74.74,0,0,0,0,.14c0,.1-.06.21-.08.31l-.06.27a.22.22,0,0,1,0,.08v0a.78.78,0,0,0,0,.14l0,.22c0,.07,0,.14,0,.21s0,.13,0,.2v.18a1,1,0,0,1,0,.17c0,.06,0,.11,0,.17s0,.1,0,.15a.52.52,0,0,1,0,.11h0v0l0,.15,0,.14a.78.78,0,0,0,.05.14.78.78,0,0,0,.05.14h0a.37.37,0,0,0,.05.11.57.57,0,0,0,.08.13l.09.14.08.09v0l0,0a1.85,1.85,0,0,0,.14.14l.21.14,0,0,1,.6a1.85,1.85,0,0,1-.41-.34h0A1.89,1.89,0,0,1,173.36,44.44Z"/><path class="cls-5" d="M176.49,37.16c1.89-1.09,3.43-.21,3.44,2a7.55,7.55,0,0,1-3.41,5.9c-1.89,1.09-3.43.21-3.44-2A7.56,7.56,0,0,1,176.49,37.16Z"/><path class="cls-4" d="M178.05,45.7h0a1.64,1.64,0,0,1-.13-.41h0a2.54,2.54,0,0,1,0-.49,3.39,3.39,0,0,1,0-.55v0c0-.17.07-.36.12-.54l0,0c.05-.16.11-.33.18-.5l.08-.15c.06-.14.13-.28.2-.41l0-.06a4.2,4.2,0,0,1,.33-.49v0a5.45,5.45,0,0,1,.38-.46h0a5.25,5.25,0,0,1,.42-.4h0a3.46,3.46,0,0,1,.46-.32,2.65,2.65,0,0,1,.46-.21h0a2.17,2.17,0,0,1,.41-.09,1.22,1.22,0,0,1,.27,0h.13a1,1,0,0,1,.35.13l-3.37-2.05a1.21,1.21,0,0,0-.35-.13H178a2.44,2.44,0,0,0-.27,0h0l-.19,0-.16,0h-.06l-.07,0-.13.06-.11,0-.12.06,0,0-.07,0-.11.06-.1.07-.1.08-.08.06h0l-.1.09-.09.08-.1.1-.1.1,0,0h0l-.06.07-.1.11a1530876900090.4,1530876900090.4,0,0,0-.2.26l0,0v0l-.07.09-.11.16-.12.19s0,0,0,0a.21.21,0,0,0,0,.06l-.1.17c0,.08-.07.16-.1.23s0,.11-.08.16l0,.06-.12.35,0,.09,0,.06,0,.09c0,.07,0,.14,0,.21l0,.19v.07s0,.06,0,.09,0,.1,0,.15a.61.61,0,0,1,0,.14v.26a435373179155.76,435373179155.76,0,0,0,0,.22s0,.07,0,.11,0,.05,0,.07h0v0l0,.1a.29.29,0,0,0,0,.09.3.3,0,0,0,0,.1l0,.09h0l0,.07.05.09.06.09.06.06h0v0l.1.09a.71.71,0,0,0,.14.1l0,0,3.37,2a1.18,1.18,0,0,1-.27-.23h0A1.41,1.41,0,0,1,178.05,45.7Z"/><path class="cls-2" d="M138.37,18.18a4.75,4.75,0,0,0-2.1,1.47,5.23,5.23,0,0,0-.79,2.26,27.5,27.5,0,0,0-.36,5.44,5,5,0,0,0,.55,2.38,4.87,4.87,0,0,0,1.7,1.48c1.11.7,2.24,1.34,3.41,1.93a5.13,5.13,0,0,0,2.35.73,5,5,0,0,0,3-1.53c1.54-1.37,2.9-2.94,4.46-4.3a13.72,13.72,0,0,1,6.13-2.64c-.06-1.67-1.91-3.43-3.28-4.39a16.34,16.34,0,0,0-4.59-2c-1.68-.52-3.41-1.35-5.09-1.77S139.88,17.56,138.37,18.18Z"/><path class="cls-2" d="M276.09,140.35c.08-6,3.51-11.08,6-16.51a2.31,2.31,0,0,1,.41-.65,2.92,2.92,0,0,1,1-.47,6.52,6.52,0,0,0,2-1.57q3.66-3.75,7.15-7.68a8.57,8.57,0,0,0,1.93-2.9c.58-1.76,0-3.67-.6-5.42-4.6-.39-9.47-.91-13.59,1.17a14.4,14.4,0,0,0-7.19,8.59,7.69,7.69,0,0,0-.35,2,14.62,14.62,0,0,1,0,1.48,5.82,5.82,0,0,1-.48,1.46c-2,4.77-3.78,9.65-5.8,14.42C269.65,136.84,272.73,138.13,276.09,140.35Z"/><path class="cls-4" d="M253.05,91.81h0a2.46,2.46,0,0,1-.13-.41h0a2.57,2.57,0,0,1,0-.5,3.51,3.51,0,0,1,0-.55v0a3.53,3.53,0,0,1,.13-.54v0a4.29,4.29,0,0,1,.19-.5c0-.06,0-.11.07-.16a4,4,0,0,1,.21-.41l0,0a5.29,5.29,0,0,1,.32-.5h0a5.81,5.81,0,0,1,.38-.46h0a4,4,0,0,1,.43-.4h0a3.19,3.19,0,0,1,.46-.32,2.73,2.73,0,0,1,.46-.22h0a1.6,1.6,0,0,1,.41-.09,1.2,1.2,0,0,1,.27,0h.13a.92.92,0,0,1,.36.13l-3.37-2a.93.93,0,0,0-.35-.13H253a1.17,1.17,0,0,0-.27,0h0l-.19,0-.16,0,0,0h0l-.07,0-.12,0-.12.06-.11.06,0,0-.07,0-.11.07-.1.07-.1.07-.08.07h0l-.1.08-.1.09-.1.09-.09.1,0,0h0l-.06.07-.1.11-.1.12-.1.13,0,0h0l-.07.1-.11.16a1.18,1.18,0,0,0-.11.19l0,0,0,0a1.62,1.62,0,0,0-.1.18l-.11.23-.07.16,0,.06c-.05.11-.09.23-.13.34l0,.1v0l0,.1a1.6,1.6,0,0,0,0,.21,1.16,1.16,0,0,0,0,.18v.07s0,.07,0,.1,0,.1,0,.15a.61.61,0,0,0,0,.14s0,.09,0,.13v.12a.49.49,0,0,1,0,.12s0,.07,0,.11,0,.07,0,.11,0,0,0,.07h0v0a.29.29,0,0,0,0,.09l0,.1,0,.09a.36.36,0,0,0,0,.09v0h0l0,.08,0,.08a.35.35,0,0,0,.07.09.18.18,0,0,0,0,.07h0v0l.1.09.14.1h0l3.37,2a1.13,1.13,0,0,1-.27-.22h0A1.16,1.16,0,0,1,253.05,91.81Z"/><path class="cls-5" d="M255.16,86.91c1.28-.74,2.32-.15,2.32,1.32a5.06,5.06,0,0,1-2.3,4c-1.27.74-2.31.15-2.32-1.31A5.08,5.08,0,0,1,255.16,86.91Z"/><path class="cls-6" d="M267.08,85.32l.1.05-5.2-3a3,3,0,0,0-.64-.28l-.2,0a3.47,3.47,0,0,0-.56-.11l-.18,0a4.39,4.39,0,0,0-.72,0h-.07l-.13,0-.38.07a3.47,3.47,0,0,0-.48.13h0l-.41.14-.37.16h0l-.35.17-.33.17-.09.06-.23.13-.31.2-.3.21-.3.22,0,0h0l-.25.2-.29.25-.29.26-.26.25h0l0,0-.29.3-.3.32-.29.34-.11.13,0,.05-.15.19c-.1.12-.21.25-.3.38s-.21.28-.31.43-.09.13-.14.2l-.06.09c0,.06-.08.11-.11.17s-.24.37-.35.56-.18.31-.26.47-.09.14-.13.22l-.09.16c-.15.3-.28.6-.42.9l-.16.36a.08.08,0,0,0,0,0,11.16,11.16,0,0,0-.39,1l-.09.29a1.09,1.09,0,0,0,0,.17l-.09.28-.15.63c0,.18-.08.36-.11.55v0c0,.17,0,.33-.07.5s0,.3-.05.45a.38.38,0,0,0,0,.1v.07a2.28,2.28,0,0,0,0,.26c0,.13,0,.25,0,.38v.36h0c0,.12,0,.24,0,.35l0,.33c0,.08,0,.17,0,.25V96a2.87,2.87,0,0,0,.05.31c0,.1.05.2.07.29l.06.19v0s0,0,0,.06.06.19.1.29.07.18.11.28a.41.41,0,0,1,0,.09l0,0,.06.13c.05.09.1.18.16.27a2.43,2.43,0,0,0,.14.2l0,0s0,0,0,0,.15.19.23.27l.17.16.08.08,0,0a3.91,3.91,0,0,0,.41.3l.07,0h0l5.2,3-.05,0a4.08,4.08,0,0,0,3.42.25,7.91,7.91,0,0,0,1.56-.69A15.48,15.48,0,0,0,269,91.69C269.58,88.56,268.76,86.23,267.08,85.32Zm-2.4-.35.13,0h.08l-.22,0Zm1.86.12h0l-.07,0Zm-.91-.17h0ZM255.36,98.07c0-.06,0-.11,0-.17,0,.1,0,.2,0,.3,0,0,0-.08,0-.13Zm0-1.07s0,0,0-.07,0,.2,0,.3c0,0,0-.1,0-.15Zm1,4.3,0,0-.06-.09.12.17Zm-.39-.64,0,0,0-.07c0,.07.07.14.11.2A.22.22,0,0,1,256,100.66Zm-.31-.76v-.05h0a1.15,1.15,0,0,0,.06.17Zm-.2-.87v0a.57.57,0,0,1,0-.13c0,.06,0,.13,0,.19A0,0,0,0,0,255.45,99Z"/><path class="cls-7" d="M268.81,84.9a8.06,8.06,0,0,1,1.19-.27l.18,0a6.71,6.71,0,0,1,1.09,0l.24,0a6.34,6.34,0,0,1,.78.14l.26.08a4.33,4.33,0,0,1,.88.38l-5.2-3a4.33,4.33,0,0,0-.88-.38l-.26-.07a4.89,4.89,0,0,0-.78-.14l-.25,0a6.49,6.49,0,0,0-1,0l-.1,0-.18,0-.52.09a5.33,5.33,0,0,0-.66.17h0l-.56.19-.51.21h0a5.24,5.24,0,0,0-.48.23l-.46.24-.12.07-.31.18-.42.28-.42.28-.4.31,0,0,0,0-.35.28-.4.34-.4.36-.36.34v0l0,0-.4.41c-.14.15-.28.29-.41.44s-.27.31-.41.47l-.14.18-.07.07-.2.25c-.14.17-.28.35-.41.53l-.42.58-.2.29-.07.11-.16.24c-.17.25-.33.51-.48.77s-.24.43-.36.64l-.17.31-.12.22c-.21.4-.4.82-.58,1.24-.07.16-.16.32-.23.48s0,0,0,.06c-.19.48-.37,1-.53,1.44l-.12.39c0,.08-.05.16-.07.24s-.08.25-.11.38c-.08.28-.15.57-.22.86s-.1.5-.14.75v.05c0,.23-.08.46-.11.69s0,.42-.07.62a.53.53,0,0,1,0,.13v.1l0,.35c0,.18,0,.36,0,.53v.48h0l0,.47c0,.16,0,.31,0,.46s0,.22,0,.34V101c0,.14,0,.28.08.42s.06.27.1.4,0,.17.07.26l0,0s0,.06,0,.09l.14.39c0,.13.1.25.16.38l.06.12s0,.05,0,.08l.09.18.21.37.19.26,0,.06a.1.1,0,0,0,0,0,2.92,2.92,0,0,0,.32.38,2.39,2.39,0,0,0,.23.22l.09.1.08.07a4.57,4.57,0,0,0,.57.41l.09.06,5.2,3a4.17,4.17,0,0,1-.73-.54l-.1-.09a5.34,5.34,0,0,1-.59-.66l0-.05a5.55,5.55,0,0,1-.49-.82.43.43,0,0,0,0-.07,8.86,8.86,0,0,1-.38-1l0,0a9.37,9.37,0,0,1-.25-1.13v0a10.34,10.34,0,0,1-.11-1.28h0a10.44,10.44,0,0,1,0-1.36.28.28,0,0,1,0-.09,13.67,13.67,0,0,1,.19-1.5,17.75,17.75,0,0,1,.47-2,2.17,2.17,0,0,0,.07-.24c.2-.64.43-1.28.69-1.9.06-.16.15-.32.22-.48.22-.49.45-1,.7-1.46a3.07,3.07,0,0,0,.17-.31c.32-.56.64-1.11,1-1.64l.08-.12c.38-.57.8-1.12,1.23-1.65l.06-.07a18.44,18.44,0,0,1,1.39-1.52l0,0a18.4,18.4,0,0,1,1.5-1.32h0a13.12,13.12,0,0,1,1.59-1.08c.35-.2.71-.38,1.06-.54h0A8.72,8.72,0,0,1,268.81,84.9Z"/><path class="cls-6" d="M266.67,85.85a10.87,10.87,0,0,1,2.14-.95c5.11-1.6,8.32,2.41,7.16,9-1,5.64-4.89,11.3-9.22,13.8a10.66,10.66,0,0,1-2.14,1c-5.11,1.59-8.31-2.42-7.15-9C258.45,94,262.35,88.35,266.67,85.85Z"/><path class="cls-4" d="M265.18,100.51h0a2.91,2.91,0,0,1-.2-.61h0a3.45,3.45,0,0,1-.07-.74,4.62,4.62,0,0,1,.07-.82v0a5.8,5.8,0,0,1,.19-.8l0-.08c.08-.25.17-.5.27-.74l.11-.23c.1-.21.2-.41.31-.61,0,0,0,0,0-.08.15-.25.31-.5.48-.73l0,0a6.13,6.13,0,0,1,.56-.68l0,0a7,7,0,0,1,.63-.59h0a6,6,0,0,1,.68-.48,4.51,4.51,0,0,1,.68-.31h0a3,3,0,0,1,.61-.14,2.61,2.61,0,0,1,.4,0h.2a1.91,1.91,0,0,1,.52.19l-1.05-.6a1.51,1.51,0,0,0-.51-.2H269a2.64,2.64,0,0,0-.4,0h0l-.28,0a1.05,1.05,0,0,0-.24.06l-.07,0h0l-.1,0-.19.08-.17.08-.17.09-.05,0a.41.41,0,0,0-.11.07l-.16.1-.15.1-.15.11-.11.09h0l0,0-.15.12a.86.86,0,0,0-.14.13l-.15.14a1.85,1.85,0,0,0-.14.14l0,0h0l-.1.11s-.09.11-.14.17l-.15.18-.15.19,0,0,0,0-.11.15-.15.23-.18.28a.16.16,0,0,1,0,.07l0,.09-.15.26c-.06.11-.11.23-.16.34l-.11.24,0,.09c-.07.16-.13.33-.19.5s0,.1,0,.15l0,.07s0,.1-.05.14-.05.21-.07.31l-.06.28s0,0,0,.07v0a.68.68,0,0,1,0,.14c0,.07,0,.15,0,.22s0,.14,0,.21v.38c0,.06,0,.12,0,.17a443227307016.91,443227307016.91,0,0,0,0,.32.36.36,0,0,0,0,.11h0v0l0,.15s0,.09,0,.14l.05.14.06.13v0h0a.54.54,0,0,1,.05.11l.08.13a.64.64,0,0,0,.1.13.86.86,0,0,0,.07.1h0l0,0a1,1,0,0,0,.15.14l.2.15,0,0,1,.6a1.8,1.8,0,0,1-.4-.33l0,0A2.37,2.37,0,0,1,265.18,100.51Z"/><path class="cls-5" d="M268.32,93.24c1.89-1.09,3.43-.22,3.43,2a7.46,7.46,0,0,1-3.41,5.89c-1.88,1.09-3.42.22-3.43-1.94A7.5,7.5,0,0,1,268.32,93.24Z"/><path class="cls-4" d="M301.59,112.69h0l-31.2-18.13a.93.93,0,0,0-.35-.13h-.13a1.29,1.29,0,0,0-.28,0h0l-.19,0-.16,0-.05,0h0l-.07,0-.12,0-.12.06-.11.06h0l-.08.05-.1.07-.1.07-.1.07-.08.06h0l-.1.08-.1.09-.09.09a.94.94,0,0,0-.1.1l0,0h0l-.06.07-.1.11-.1.12a1.13,1.13,0,0,1-.1.13l0,0h0a.61.61,0,0,1-.07.1s-.07.1-.1.16l-.12.19,0,0,0,0-.1.18c0,.07-.07.15-.11.23s-.05.1-.07.16l0,.06c0,.11-.09.23-.13.34l0,.1v0l0,.1a1.94,1.94,0,0,0-.05.2,1.62,1.62,0,0,0,0,.19v.07s0,.07,0,.1a.77.77,0,0,0,0,.15s0,.09,0,.14v.37a.41.41,0,0,1,0,.11s0,.07,0,.1,0,0,0,.08h0v0s0,.06,0,.09l0,.1,0,.09,0,.09h0l0,.07.06.09.06.09.05.07h0a.47.47,0,0,0,.1.1l.13.1h0l31.21,18.14a.65.65,0,0,1-.16-.13,1.5,1.5,0,0,0,1.8,0,5.07,5.07,0,0,0,2.3-4A1.61,1.61,0,0,0,301.59,112.69Zm-1.17-.06.14,0-.14,0ZM298,118.07a.78.78,0,0,1-.11-.18.88.88,0,0,0,.12.19Zm-.2-.31h0a2.14,2.14,0,0,1-.09-.27,1.84,1.84,0,0,0,.09.28Zm-.14-.42a2.67,2.67,0,0,1,0-.5,2.6,2.6,0,0,0,0,.5Z"/><path class="cls-7" d="M308.37,108a8.06,8.06,0,0,1,1.19-.27l.19,0a5.77,5.77,0,0,1,1.09,0,1.81,1.81,0,0,1,.23,0,5,5,0,0,1,.79.13l.26.08a4.33,4.33,0,0,1,.88.38l-5.2-3a5.27,5.27,0,0,0-.88-.37l-.27-.08a6.34,6.34,0,0,0-.78-.14l-.24,0a5.28,5.28,0,0,0-1,0l-.11,0-.19,0a4.71,4.71,0,0,0-.5.08l-.65.18h0c-.19,0-.37.12-.56.19l-.51.21h0l-.48.23-.46.24-.12.07-.31.18-.42.28-.42.28-.4.31,0,0,0,0-.35.28-.4.34-.4.36-.35.34h0l0,0-.4.41-.41.44c-.14.15-.27.31-.41.47s-.09.12-.14.17l-.06.08-.21.24-.41.54-.42.58-.19.28-.08.12-.16.24-.48.77c-.12.2-.24.42-.35.63a3.07,3.07,0,0,0-.17.31l-.13.22c-.21.4-.38.81-.57,1.22-.07.17-.16.33-.23.5l0,.07q-.3.72-.54,1.44c0,.13-.07.26-.11.38s-.05.16-.08.24-.08.26-.11.39c-.08.29-.15.58-.22.86s-.1.49-.14.74v0c0,.24-.08.47-.11.69s-.05.42-.06.63a.53.53,0,0,0,0,.13.34.34,0,0,0,0,.1c0,.12,0,.23,0,.35s0,.35,0,.52,0,.33,0,.49h0c0,.16,0,.31,0,.47s0,.3.05.45,0,.23,0,.35V124c0,.14,0,.28.08.42s.06.27.09.41.05.17.08.25v.06l0,.08c0,.14.09.27.13.39s.11.26.16.38.05.09.07.13l0,.08.09.17c.07.13.14.26.22.38a2.48,2.48,0,0,0,.19.26l0,.06,0,0a4,4,0,0,0,.32.38l.23.22.1.1.08.07a4.65,4.65,0,0,0,.57.42l.09.05,5.2,3a3.83,3.83,0,0,1-.73-.54l-.11-.09a5.27,5.27,0,0,1-.58-.66.1.1,0,0,1,0,0,5.55,5.55,0,0,1-.49-.82l0-.07a6.15,6.15,0,0,1-.38-1l0,0a9.81,9.81,0,0,1-.26-1.13v0a8.69,8.69,0,0,1-.12-1.28h0c0-.43,0-.89,0-1.36,0,0,0-.06,0-.1,0-.48.1-1,.19-1.49a17.29,17.29,0,0,1,.48-2,1.82,1.82,0,0,1,.07-.25c.2-.63.42-1.26.68-1.89.07-.17.16-.33.24-.5q.31-.74.69-1.44l.17-.31c.31-.56.64-1.11,1-1.64l.08-.11q.58-.87,1.23-1.65l.06-.07a20.39,20.39,0,0,1,1.39-1.52l0,0a18.17,18.17,0,0,1,1.5-1.32h0a13.12,13.12,0,0,1,1.59-1.08,11.91,11.91,0,0,1,1.07-.54h0A9.38,9.38,0,0,1,308.37,108Z"/><path class="cls-6" d="M306.23,108.92a10.87,10.87,0,0,1,2.14-1c5.12-1.61,8.33,2.41,7.16,9-1,5.63-4.89,11.3-9.22,13.8a10,10,0,0,1-2.13,1c-5.11,1.6-8.32-2.42-7.16-9C298,117.08,301.91,111.42,306.23,108.92Z"/><path class="cls-7" d="M313.72,113.46a5.27,5.27,0,0,1,.79,0l.17,0a4.82,4.82,0,0,1,.57.1l.19.06a3.32,3.32,0,0,1,.64.27l-5.2-3a3.65,3.65,0,0,0-.64-.28l-.19,0a3.39,3.39,0,0,0-.57-.1l-.18,0a5.66,5.66,0,0,0-.71,0l-.08,0-.12,0-.38.06-.48.13h0l-.41.14-.38.16-.35.17-.33.18-.09,0-.23.13-.31.2-.3.21-.3.22,0,0h0l-.25.21-.29.24-.3.27c-.08.08-.17.16-.25.25h0l0,0-.3.3c-.1.1-.19.21-.29.32l-.3.34a1.13,1.13,0,0,0-.1.13l-.05,0-.15.18-.3.39c-.1.14-.21.28-.31.43a2.43,2.43,0,0,1-.14.2l0,.09-.12.17c-.12.19-.24.38-.35.57l-.26.45a1.71,1.71,0,0,1-.13.23,1.4,1.4,0,0,1-.09.17c-.15.29-.28.58-.41.88-.05.13-.12.24-.17.37s0,0,0,0a11.16,11.16,0,0,0-.39,1.05c0,.09-.06.19-.09.28l-.05.17-.09.28-.15.64c0,.17-.08.35-.11.53v0c0,.17-.06.34-.08.5s0,.31,0,.46a.34.34,0,0,1,0,.1v.07a2.28,2.28,0,0,0,0,.26c0,.13,0,.25,0,.38v.36h0c0,.11,0,.23,0,.34l0,.33c0,.09,0,.17,0,.26v.06c0,.1,0,.21.06.31s0,.19.07.29a1.33,1.33,0,0,0,0,.19v0s0,0,0,.06.07.19.1.28l.12.28s0,.06,0,.1l0,0,.06.13.16.27.14.2,0,0s0,0,0,0l.24.27c.05.06.11.11.16.16l.08.07.05.06a3.19,3.19,0,0,0,.42.3l.06,0,5.21,3a3,3,0,0,1-.54-.39l-.07-.07a3.28,3.28,0,0,1-.43-.48l0,0a4.33,4.33,0,0,1-.36-.6l0-.05a6.74,6.74,0,0,1-.28-.72v0a5.17,5.17,0,0,1-.18-.82v0a9.19,9.19,0,0,1-.08-.93h0a8.26,8.26,0,0,1,0-1v-.08c0-.35.08-.71.14-1.08a14.57,14.57,0,0,1,.35-1.45,1.21,1.21,0,0,0,.05-.18c.15-.46.31-.92.5-1.38.05-.12.12-.24.17-.37.16-.35.32-.7.51-1l.12-.23c.23-.41.47-.81.73-1.2l.06-.08c.28-.42.58-.82.89-1.21l.05,0c.32-.39.66-.76,1-1.11h0a12.08,12.08,0,0,1,1.09-1l0,0a11.77,11.77,0,0,1,1.16-.78,7.36,7.36,0,0,1,1.56-.69,4.93,4.93,0,0,1,.87-.2Z"/><path class="cls-6" d="M311.16,114.37a7.36,7.36,0,0,1,1.56-.69c3.72-1.17,6.06,1.76,5.22,6.54a15.49,15.49,0,0,1-6.73,10.06,7.19,7.19,0,0,1-1.56.7c-3.72,1.16-6.06-1.76-5.22-6.54A15.45,15.45,0,0,1,311.16,114.37Z"/><path class="cls-4" d="M309.21,126h0a2.57,2.57,0,0,1-.2-.61h0a4.23,4.23,0,0,1-.07-.74,4.51,4.51,0,0,1,.07-.81v0a6.16,6.16,0,0,1,.19-.8l0-.07c.08-.25.17-.5.27-.74a2.56,2.56,0,0,0,.11-.24c.1-.2.2-.4.31-.6a.41.41,0,0,1,0-.09,8.21,8.21,0,0,1,.47-.73l0,0a7.5,7.5,0,0,1,.56-.68h0a5,5,0,0,1,.63-.59h0a6,6,0,0,1,.68-.48,4.51,4.51,0,0,1,.68-.31h0a2.82,2.82,0,0,1,.6-.13,1.82,1.82,0,0,1,.41,0,.61.61,0,0,1,.19,0,1.55,1.55,0,0,1,.52.19l-1-.61a1.79,1.79,0,0,0-.52-.19H313a1.86,1.86,0,0,0-.41,0,0,0,0,0,0,0,0l-.28,0-.23.06-.07,0h0l-.11,0-.18.08-.18.08-.16.09-.05,0a.41.41,0,0,0-.11.07l-.16.1-.15.1-.15.11-.11.09h0l0,0-.14.12-.15.13-.14.13-.15.15,0,0,0,0-.09.1-.15.16-.14.18-.15.2,0,0,0,0-.1.14-.16.23c-.06.1-.12.19-.17.29a.16.16,0,0,0,0,.07l-.05.08-.15.27c-.06.11-.1.22-.16.34l-.11.23,0,.09c-.07.17-.13.34-.19.51s0,.09,0,.14l0,.08c0,.05,0,.1-.05.14s-.05.21-.07.31l-.06.28s0,0,0,.07v0l0,.14c0,.08,0,.15,0,.22a1.48,1.48,0,0,0,0,.21,1.34,1.34,0,0,0,0,.2v.18c0,.06,0,.12,0,.17s0,.11,0,.17a.77.77,0,0,0,0,.15s0,.08,0,.12h0v0l0,.15s0,.1,0,.14,0,.1.05.14l.06.14v0h0l.06.1s0,.09.07.14l.1.13.08.09v0l0,0,.15.14.2.15,0,0,1,.6a1.86,1.86,0,0,1-.41-.33v0A2.25,2.25,0,0,1,309.21,126Z"/><path class="cls-5" d="M312.35,118.69c1.88-1.08,3.43-.21,3.43,2a7.51,7.51,0,0,1-3.41,5.91c-1.88,1.08-3.42.21-3.43-2A7.54,7.54,0,0,1,312.35,118.69Z"/><path class="cls-4" d="M313.91,127.23h0a2.19,2.19,0,0,1-.14-.41h0a2.49,2.49,0,0,1,0-.49,3.39,3.39,0,0,1,0-.55v0a5.29,5.29,0,0,1,.13-.54v0c.06-.17.12-.34.19-.51l.07-.15c.07-.14.13-.28.21-.41l0-.06c.1-.17.21-.33.32-.49v0a5.58,5.58,0,0,1,.39-.46h0a3.88,3.88,0,0,1,.42-.39h0a3.46,3.46,0,0,1,.46-.32,2.57,2.57,0,0,1,.45-.21h0a3.52,3.52,0,0,1,.42-.09h.4a1.48,1.48,0,0,1,.35.13l-3.37-2A1.33,1.33,0,0,0,314,120a.57.57,0,0,0-.13,0,1.22,1.22,0,0,0-.27,0s0,0,0,0a.63.63,0,0,0-.19,0l-.16,0h-.06l-.08,0-.12,0-.12,0-.11.06,0,0-.08,0-.1.06-.1.07-.1.08-.08.06h0l-.1.08-.09.09-.1.09a.94.94,0,0,0-.1.1l0,0v0l-.07.06-.1.12-.1.12-.1.13,0,0h0l-.08.1-.1.15-.12.19,0,0,0,.06-.1.18c0,.07-.07.15-.11.23l-.07.15,0,.07a3.4,3.4,0,0,0-.12.34.32.32,0,0,0,0,.09l0,.06,0,.09a1.6,1.6,0,0,0-.05.21c0,.06,0,.13,0,.19v.07s0,.06,0,.09a.77.77,0,0,0,0,.15s0,.1,0,.14v.38s0,.07,0,.11a.34.34,0,0,0,0,.1s0,0,0,.07h0v0s0,.07,0,.1l0,.1,0,.09,0,.09h0a.25.25,0,0,0,0,.07.41.41,0,0,0,.05.09l.06.09.05.06h0l0,0a.47.47,0,0,0,.1.1l.13.1h0l3.37,2a1,1,0,0,1-.28-.23h0A1.38,1.38,0,0,1,313.91,127.23Z"/><path class="cls-2" d="M275.94,99.25a4.73,4.73,0,0,0-2.1,1.46,5.41,5.41,0,0,0-.79,2.26,26.8,26.8,0,0,0-.35,5.44,4.86,4.86,0,0,0,.54,2.39,5.06,5.06,0,0,0,1.7,1.48c1.11.69,2.25,1.33,3.41,1.93a5.12,5.12,0,0,0,2.35.72,4.89,4.89,0,0,0,3.05-1.53c1.54-1.37,2.9-2.94,4.45-4.3a13.63,13.63,0,0,1,6.14-2.63c-.06-1.68-1.91-3.43-3.28-4.4a16.44,16.44,0,0,0-4.59-2c-1.68-.53-3.42-1.36-5.09-1.77S277.46,98.62,275.94,99.25Z"/><path class="cls-8" d="M158,115s.84-12.91,10.7-18.12c1.86-.24,18.76,13.27,18.76,13.27s7.83,8.84.83,14.61S158,115,158,115Z"/><polygon class="cls-9" points="106.77 464.85 0.01 403.21 0 405.36 106.76 467 425.12 281.99 425.13 279.84 106.77 464.85"/><polygon class="cls-10" points="425.13 279.84 106.77 464.85 0.01 403.21 318.37 218.2 425.13 279.84"/><ellipse class="cls-11" cx="91" cy="283.98" rx="37.61" ry="27.1"/><g class="cls-12"><path class="cls-13" d="M465,375.73c-4.21,7.08-12,13.29-20.44,17.1-5.66,2.54-26.55-21.81-24.81-23.67,8.3-8.89,21.76-15.29,33.11-15.13C466.63,354.21,472.07,363.93,465,375.73Z"/></g><g class="cls-12"><path class="cls-13" d="M278.81,484a38.58,38.58,0,0,1-8.44,9.63c-3.56,3-38.55-14.33-36.81-16.2,8.3-8.88,21.76-15.28,33.11-15.13C280.4,462.48,285.84,472.2,278.81,484Z"/></g><path class="cls-2" d="M165.31,253.34c-.68,11.56.51,21.91.42,23.76-.4,8.61,7.37,65.62,7.37,65.62a10.35,10.35,0,0,0,10.76.94s4.31-42.57,3.58-51.11a58.4,58.4,0,0,0-2.08-11.94l3.14-24.69C181.49,257.24,172.11,254.77,165.31,253.34Z"/><path class="cls-14" d="M227.61,354c-3.78,3.32-9.63.63-9.91.93-3.81,4.12-9.66,8.87-13.93,12.49-2.35,2-6.05,4.69-5.23,8.34,1.47,6.51,11.9,4.11,15.79,2s7-5.6,10.67-8.07c2.61-1.75,5.21-2.71,5.5-6.1C230.68,361.52,228.29,353.92,227.61,354Z"/><path class="cls-15" d="M230.4,362.2c-.39,3.26-3,4.24-5.55,6-3.73,2.51-7,6.05-10.84,8.2-3.6,2-12.66,4.16-15.41-.43,1.63,6.27,11.88,3.91,15.73,1.78s7-5.6,10.67-8.07c2.61-1.75,5.21-2.71,5.5-6.1A6,6,0,0,0,230.4,362.2Z"/><path class="cls-14" d="M183.89,342.37c-4,3-10.69-.79-11-.52a150.62,150.62,0,0,1-13.37,11c-2.52,1.8-6.42,4.17-5.91,7.87.92,6.62,11.52,5.09,15.57,3.27s7.44-5,11.3-7.15c2.75-1.54,5.42-2.28,6-5.63C186.83,349.17,184.58,342.32,183.89,342.37Z"/><path class="cls-15" d="M186.41,350.29c-.66,3.21-3.3,4-6,5.51-3.92,2.19-7.44,5.44-11.49,7.26-3.74,1.69-13,3.1-15.31-1.7,1.1,6.39,11.51,4.88,15.52,3.08s7.45-5,11.3-7.15c2.75-1.54,5.42-2.27,6-5.63A6.73,6.73,0,0,0,186.41,350.29Z"/><path class="cls-16" d="M221.4,254.64c.33-13.74,1.2-38.56,1.17-44.35l-53.82-15s-2,34.11-3.44,58.06c6.8,1.43,16.18,3.9,23.19,2.58l3.45-27.2,1.56-.09s1.61,13.21,3.44,27C204.76,257.15,213.76,257.78,221.4,254.64Z"/><path class="cls-2" d="M221.48,285.55s-.43-16.59-.1-30.16c0-.24,0-.5,0-.75-7.64,3.14-16.64,2.51-24.45,1,1.58,11.93,3.32,24.29,4.33,28.85,1.8,8.12,2.57,15.71,5.95,28.8S217.9,355.4,217.9,355.4a9.23,9.23,0,0,0,10-.37s.17-36.63-1.76-48.17S221.48,285.55,221.48,285.55Z"/><path class="cls-2" d="M209.1,97.48s-.66,12.85-.38,14,5.9,4.9,7.53,6.25-8.88,11.73-14,14.07S180.94,128,180.66,120s2.77-14.64,5.26-15S209.1,97.48,209.1,97.48Z"/><path class="cls-17" d="M210.53,113.69s-9.32,13.89-22.33,15.19c-4.1-4-4.47-18.42,1.21-23,0,0-5.22-4.21-8.79-3.39a18.38,18.38,0,0,0-8,10.24A84.19,84.19,0,0,0,168,142.45c.22,13.63,0,55.27,0,55.27s1.83,8.81,13.59,15.36,20.5,7.19,28.48,5.34c6.58-1.54,12-3.86,14.29-8.64-.59-9.55-4.85-34.48-3.26-46.49s4.13-21,4.79-30.69-1.28-9.52-6.15-13A75.75,75.75,0,0,0,210.53,113.69Z"/><path class="cls-2" d="M180,78.34h0c1.54-10,8.72-17.53,19-17a19.83,19.83,0,0,1,18.71,20.91,19.63,19.63,0,0,1-8.63,15.19s-.94,3.6-1.59,4.36c-3.64,4.26-14.64,6.88-17.8,6.43-4.06-.58-6.26-2.27-8.19-6.71C178.11,93.73,179.18,83.27,180,78.34Z"/><path class="cls-18" d="M209.1,97.48h0l-.95-8.7s7.11-18.4-9.68-14.87c-11.09,2.34-13.87,3.35-17.25-4.09s8.53-14.13,22.66-12.27a19.53,19.53,0,0,1,17.48,19.81C221,82.83,219.53,93.91,209.1,97.48Z"/><path class="cls-3" d="M224.6,126.28c5.89,3.44,11.71,7,17.5,10.59,2.91,1.78,5.81,3.57,8.68,5.42l4.31,2.74,1.08.69.27.17c.07,0,.24.15.19.11s0,0-.06,0a1.17,1.17,0,0,0,.32.11,1.5,1.5,0,0,0,1.44-.62l4.53-8.9c3.19-6.09,7.18-11.79,10.57-17.77l8.76,4.25c-2.46,6.42-4.24,13.05-6.91,19.37l-2.06,4.73-1,2.35-.53,1.18-.26.59-.15.33-.26.52a15.64,15.64,0,0,1-6.49,6.67,15.9,15.9,0,0,1-13.8.65c-.41-.18-.82-.38-1.22-.58a3.31,3.31,0,0,1-.37-.21l-.28-.17-1.11-.67-4.43-2.67c-3-1.77-5.89-3.6-8.82-5.42-5.88-3.63-11.72-7.31-17.5-11.1Z"/><path class="cls-8" d="M245.06,135.93s-2.42,12.7-12.85,16.65c-1.87,0-17-15.48-17-15.48s-6.68-9.74,1-14.61S245.06,135.93,245.06,135.93Z"/><path class="cls-8" d="M224.39,122.48c-1-.89-2.33-1.66-4-2.86a75.75,75.75,0,0,0-9.2-5.93,42.68,42.68,0,0,1-4.85,5.72c2.06,32.83,6.51,66.77.82,99.64a34.84,34.84,0,0,0,3.56-.63c6.58-1.54,12-3.86,14.29-8.64-.59-9.55-4.85-34.48-3.26-46.49.86-6.52,2-12.12,3-17.45,3.68,3.51,7.29,6.75,8.15,6.74,10.43-4,12.85-16.65,12.85-16.65S233.61,125.49,224.39,122.48Z"/><g class="cls-19"><g class="cls-19"><g class="cls-20"><g class="cls-19"><path class="cls-21" d="M95.53,275.87l0,8a1.46,1.46,0,0,0,0-.29l0-8a1.5,1.5,0,0,1,0,.29"/><path class="cls-22" d="M95.5,275.58l0,8a2.12,2.12,0,0,0-.32-.84l0-8a2.1,2.1,0,0,1,.31.84"/><path class="cls-23" d="M95.19,274.74l0,8a3.08,3.08,0,0,0-.66-.76l0-8a3.59,3.59,0,0,1,.67.76"/><path class="cls-24" d="M94.52,274l0,8a4.91,4.91,0,0,0-.71-.49,5.75,5.75,0,0,0-1-.45l0-8a5.75,5.75,0,0,1,1,.45,4.42,4.42,0,0,1,.71.49"/><path class="cls-6" d="M92.84,273l0,8a8.23,8.23,0,0,0-1.44-.39l0-8a8,8,0,0,1,1.44.39"/><path class="cls-24" d="M91.4,272.65l0,8a10.48,10.48,0,0,0-2.31-.13l0-8a9.87,9.87,0,0,1,2.31.12"/><path class="cls-23" d="M89.09,272.53l0,8a9.47,9.47,0,0,0-1.43.2l0-8a9.64,9.64,0,0,1,1.43-.19"/><path class="cls-22" d="M87.66,272.72l0,8a7.7,7.7,0,0,0-1.31.41l0-8a7.59,7.59,0,0,1,1.3-.41"/><path class="cls-21" d="M86.36,273.13l0,8a5.06,5.06,0,0,0-.74.36,2.87,2.87,0,0,0-1.67,2.35l0-8a2.88,2.88,0,0,1,1.68-2.35,4.61,4.61,0,0,1,.74-.36"/></g></g></g><g class="cls-19"><g class="cls-25"><g class="cls-19"><path class="cls-21" d="M126.08,276l0,8c0,5.35-3.54,10.7-10.57,14.78a37.43,37.43,0,0,1-4.62,2.28l0-8a38.28,38.28,0,0,0,4.63-2.28c7-4.08,10.54-9.43,10.56-14.78"/><path class="cls-22" d="M110.89,293l0,8a49.19,49.19,0,0,1-8.17,2.53l0-8a48.9,48.9,0,0,0,8.17-2.53"/><path class="cls-23" d="M102.72,295.56l0,8a59.09,59.09,0,0,1-9,1.23l0-7.95a60.37,60.37,0,0,0,9-1.24"/><path class="cls-24" d="M93.72,296.8l0,7.95A61.84,61.84,0,0,1,79.23,304l0-8a62.38,62.38,0,0,0,14.47.8"/><path class="cls-6" d="M79.25,296l0,8a52.29,52.29,0,0,1-9-2.41l0-8a51.94,51.94,0,0,0,9,2.41"/><path class="cls-24" d="M70.23,293.59l0,8a39.2,39.2,0,0,1-6.1-2.85,29.45,29.45,0,0,1-4.41-3.07l0-8a30.52,30.52,0,0,0,4.41,3.07,39.32,39.32,0,0,0,6.11,2.85"/><path class="cls-23" d="M59.71,287.67l0,8a20.24,20.24,0,0,1-4.18-4.75l0-8a20.47,20.47,0,0,0,4.18,4.75"/><path class="cls-22" d="M55.53,282.92l0,8a13.91,13.91,0,0,1-2-5.3l0-7.95a14.09,14.09,0,0,0,2,5.29"/><path class="cls-21" d="M53.53,277.63l0,7.95a12.94,12.94,0,0,1-.14-1.86l0-8a13.19,13.19,0,0,0,.14,1.87"/></g></g></g><path class="cls-26" d="M115.35,261c14.24,8.22,14.32,21.56.17,29.78s-37.16,8.21-51.4,0S49.81,269.2,64,261,101.11,252.75,115.35,261Zm-29.7,17.26a9,9,0,0,0,8.18,0c2.27-1.31,2.26-3.43,0-4.74a9,9,0,0,0-8.19,0c-2.25,1.3-2.23,3.44,0,4.74"/></g><path class="cls-4" d="M468.11,344.22a2.6,2.6,0,0,1-1.18,2.46.16.16,0,0,1-.09.05l-18.19,10.61-4.06-10,16.79-9.78a.42.42,0,0,1,.12-.08l.29-.16a2.82,2.82,0,0,1,2.52.36A8.34,8.34,0,0,1,468.11,344.22Z"/><path class="cls-27" d="M462.62,357.28c0-.13,0-.26,0-.38,0-.3-.05-.59-.08-.89s0-.41-.05-.62l-.09-.57c0-.17-.05-.35-.08-.52l-.06-.39q-.12-.65-.27-1.29a.29.29,0,0,0,0-.09c0-.06,0-.12,0-.18-.07-.31-.15-.62-.23-.93s-.17-.59-.25-.88a1.09,1.09,0,0,1-.05-.17l0-.09c-.11-.36-.22-.71-.34-1.07l-.27-.73-.06-.18s0-.08-.05-.13c-.12-.33-.26-.67-.39-1l-.32-.75-.06-.13s0-.07,0-.11l-.45-1c-.13-.28-.27-.55-.4-.82l-.05-.09,0-.06c-.16-.32-.33-.64-.5-1s-.33-.59-.5-.89l0,0v0l-.57-1-.56-.88,0-.05,0,0c-.21-.33-.43-.65-.65-1l-.49-.69-.15-.2-.09-.13-.84-1.09-.23-.27-.37-.44-.44-.52c-.12-.14-.25-.26-.37-.39-.27-.3-.55-.6-.84-.89-.12-.13-.24-.27-.37-.4l-.42-.39-.54-.51-1-.85-.51-.43c-.41-.32-.82-.63-1.23-.92l-.29-.22c-.48-.33-1-.64-1.46-.93l-.19-.11a19.11,19.11,0,0,0-1.73-.9l0,0c-.46-.2-.91-.39-1.36-.55l-.14,0-.29-.09c-.23-.08-.45-.16-.68-.22l-.54-.13-.25-.05-.17,0c-.29-.06-.57-.11-.85-.14l-.31,0-.21,0-.27,0c-.25,0-.5,0-.75,0l-.25,0h-.45c-.22,0-.45,0-.67.09L437,328l-.15,0-.24.05-.62.17-.27.1-.14.06-.19.07a5.3,5.3,0,0,0-.59.27l-.34.19-3.36,1.95a8.7,8.7,0,0,1,1.11-.53l.15-.05a8,8,0,0,1,1.12-.32l.15,0a11.43,11.43,0,0,1,1.21-.15H435a10.7,10.7,0,0,1,1.26,0l.21,0a12.58,12.58,0,0,1,1.33.2l.25.06c.4.09.81.21,1.22.34l.3.1a14.61,14.61,0,0,1,1.52.61c.57.26,1.15.55,1.74.89s1.1.67,1.64,1.05c.1.06.19.14.29.21.42.3.83.6,1.23.93l.52.43c.32.27.65.55,1,.84l.55.51c.26.26.53.52.79.79s.56.59.84.9.54.6.8.91l.37.44c.4.48.79,1,1.17,1.48l.14.21c.4.55.79,1.1,1.16,1.67l0,.05c.39.61.77,1.22,1.13,1.85l0,0c.37.63.71,1.26,1,1.91a.3.3,0,0,0,0,.08c.32.63.61,1.26.89,1.9a1.47,1.47,0,0,1,.06.14c.28.63.53,1.26.76,1.89,0,.06,0,.12.07.17.23.63.44,1.27.63,1.9,0,.05,0,.11.05.16.18.61.34,1.21.48,1.82,0,.06,0,.12.05.18.13.59.25,1.18.34,1.76,0,.18.06.35.08.53.06.4.11.79.15,1.19s.06.59.08.88c0,.56.07,1.11.06,1.65,0,5.2-1.85,8.85-4.8,10.57l3.36-1.95c3-1.72,4.79-5.38,4.81-10.57C462.65,358.13,462.64,357.71,462.62,357.28Z"/><path class="cls-27" d="M442.85,332c9.1,5.26,16.46,18,16.43,28.47s-7.44,14.68-16.54,9.42-16.47-18-16.44-28.46S433.74,326.77,442.85,332Z"/><path class="cls-28" d="M462,363.52c0-.16,0-.33,0-.49,0-.36-.06-.73-.1-1.1s0-.52-.07-.78-.07-.48-.11-.71-.06-.44-.1-.66,0-.32-.08-.48c-.09-.54-.2-1.09-.33-1.63a.36.36,0,0,1,0-.11l-.06-.21c-.09-.39-.18-.79-.29-1.18s-.21-.73-.32-1.1a1.66,1.66,0,0,0-.06-.21l0-.12c-.14-.44-.28-.89-.43-1.33l-.33-.92c0-.07-.05-.14-.08-.22l-.06-.16c-.16-.43-.32-.85-.5-1.27s-.26-.62-.39-.93l-.08-.18a1.12,1.12,0,0,0-.05-.13c-.18-.41-.37-.82-.56-1.22s-.33-.68-.5-1l-.06-.11,0-.08q-.3-.6-.63-1.2c-.2-.37-.41-.74-.62-1.11l0-.05v0c-.24-.4-.47-.8-.72-1.19s-.46-.74-.69-1.1l0-.06,0,0q-.39-.6-.81-1.2c-.2-.29-.41-.57-.61-.85l-.19-.26-.12-.16c-.35-.47-.7-.92-1.05-1.36l-.29-.34c-.15-.19-.31-.37-.46-.55s-.37-.45-.56-.66-.3-.32-.45-.48c-.35-.39-.7-.76-1.05-1.13l-.47-.49-.52-.49-.68-.64c-.4-.37-.8-.72-1.21-1.06-.22-.18-.43-.37-.65-.54-.51-.41-1-.79-1.54-1.16l-.36-.27q-.92-.63-1.83-1.17l-.24-.14c-.69-.4-1.38-.75-2-1.07l-.1,0-.06,0c-.57-.26-1.13-.49-1.69-.69l-.17-.06-.38-.11-.84-.27-.68-.16-.32-.07-.2-.05c-.36-.07-.72-.13-1.07-.17l-.39,0-.26,0-.34,0c-.32,0-.63,0-.93,0l-.31,0h-.22l-.35,0c-.28,0-.56.06-.84.1l-.31.07-.2,0-.29.06a6.39,6.39,0,0,0-.78.22l-.33.12-.18.07-.24.09c-.26.1-.5.22-.74.34l-.42.23-4.21,2.45a9.83,9.83,0,0,1,1.39-.66l.18-.07a10.44,10.44,0,0,1,1.41-.4l.19,0a10.6,10.6,0,0,1,1.5-.19h.22a12,12,0,0,1,1.58,0l.27,0a14.59,14.59,0,0,1,1.66.26l.31.07c.5.12,1,.26,1.53.43l.37.11q.94.33,1.92.78l.1,0c.68.32,1.36.67,2.06,1.07s1.38.84,2.06,1.31l.37.27c.52.37,1,.75,1.54,1.16l.64.54c.41.34.81.69,1.21,1.06.23.21.46.42.68.64s.66.65,1,1,.71.73,1.05,1.11.68.76,1,1.15c.16.18.31.36.46.55.5.6,1,1.22,1.46,1.86l.19.26c.5.68,1,1.38,1.45,2.09a.43.43,0,0,1,0,.07c.5.75,1,1.53,1.43,2.31l0,.05c.45.78.89,1.58,1.29,2.38l.06.12c.4.79.77,1.58,1.12,2.37l.07.18c.34.78.66,1.57,1,2.36,0,.08,0,.15.07.22.29.79.56,1.58.8,2.37l.06.21c.22.76.43,1.52.61,2.28a1.6,1.6,0,0,0,.05.21c.17.75.31,1.48.43,2.22,0,.22.07.44.1.66.08.5.13,1,.18,1.49s.08.74.1,1.11c.05.69.09,1.38.09,2.06,0,6.52-2.32,11.1-6,13.25l4.22-2.45c3.71-2.15,6-6.73,6-13.25C462,364.58,462,364.05,462,363.52Z"/><path class="cls-28" d="M437.19,331.89c11.41,6.59,20.62,22.55,20.59,35.66s-9.32,18.4-20.73,11.81-20.62-22.54-20.58-35.66S425.78,325.31,437.19,331.89Z"/><path class="cls-27" d="M458.43,371.25c0-.2,0-.41-.06-.61,0-.45-.07-.92-.12-1.38s-.05-.64-.09-1-.09-.59-.14-.89l-.12-.82c0-.2-.06-.4-.1-.6-.12-.67-.26-1.35-.41-2l0-.13a2.86,2.86,0,0,1-.07-.28c-.12-.49-.23-1-.37-1.46s-.25-.92-.39-1.37c0-.09,0-.18-.07-.26l0-.15c-.17-.56-.35-1.11-.54-1.67-.13-.38-.27-.76-.41-1.14l-.09-.28-.08-.2c-.2-.53-.4-1.06-.62-1.59s-.32-.77-.49-1.15a2.29,2.29,0,0,0-.1-.23,1.11,1.11,0,0,0-.07-.16c-.22-.51-.46-1-.7-1.53s-.41-.85-.62-1.27l-.07-.14-.05-.1c-.25-.5-.52-1-.79-1.49s-.51-.93-.77-1.39l0-.06,0,0c-.29-.5-.58-1-.89-1.49s-.57-.91-.87-1.36a.22.22,0,0,0-.05-.08l0-.05c-.33-.51-.67-1-1-1.5s-.51-.71-.77-1.06l-.23-.33-.15-.2c-.43-.58-.87-1.14-1.32-1.7l-.35-.42-.58-.69c-.23-.27-.46-.56-.69-.82s-.38-.4-.57-.6c-.43-.48-.87-.95-1.31-1.4-.2-.21-.39-.43-.59-.63s-.43-.4-.65-.61l-.84-.79c-.5-.46-1-.9-1.52-1.33l-.8-.67q-.94-.75-1.92-1.44c-.15-.11-.3-.24-.46-.34q-1.12-.78-2.28-1.47l-.29-.17c-.46-.26-.91-.51-1.37-.74l-.43-.22-.91-.44-.05,0-.12-.05c-.6-.27-1.2-.51-1.78-.73l-.22-.08-.14-.05c-.52-.18-1-.34-1.54-.48l-.05,0-.26-.06c-.36-.09-.72-.18-1.07-.25l-.18,0c-.11,0-.23,0-.34-.06s-.5-.09-.75-.12l-.23,0-.31,0-.66,0-.27,0h-.28l-.6,0h-.55l-.54,0-.29,0a2.3,2.3,0,0,0-.26,0l-.52.07-.27,0-.27.05-.48.1-.25.05-.28.08-.47.14-.23.06-.27.1-.46.17-.21.08-.27.13-.46.21-.19.09-.52.29L409.17,330c.23-.13.47-.25.71-.37l.46-.22.48-.2.46-.17.5-.17.47-.13.52-.13.49-.1.54-.09.52-.06.55-.05.54,0h1.15l.55,0,.66.06.54.07c.25,0,.5.07.74.12l.52.09c.36.08.72.16,1.08.26l.31.07c.51.14,1,.31,1.54.49l.35.13c.59.22,1.19.46,1.79.73l.17.07.91.44.43.21,1.37.75c.86.5,1.72,1.05,2.57,1.64l.46.33c.64.47,1.29.94,1.92,1.45l.8.67c.51.43,1,.87,1.52,1.33l.84.79c.42.4.83.82,1.24,1.24s.88.92,1.31,1.39.85.94,1.26,1.43c.19.23.39.45.58.69.62.75,1.23,1.53,1.82,2.32a3.71,3.71,0,0,0,.23.32c.62.85,1.23,1.72,1.81,2.61a.41.41,0,0,1,.05.09c.62.94,1.21,1.91,1.78,2.89l0,.06q.86,1.47,1.62,3a1,1,0,0,0,.07.15c.49,1,1,2,1.39,3a1.47,1.47,0,0,0,.1.22c.42,1,.82,2,1.18,2.95,0,.09.07.18.1.27.36,1,.69,2,1,3,0,.09.05.18.08.26.28.95.53,1.9.76,2.84l.06.28c.22.92.39,1.84.54,2.76.05.27.09.55.13.82.09.63.16,1.24.23,1.86,0,.46.09.92.12,1.38.06.87.11,1.73.1,2.58a24.49,24.49,0,0,1-2,10.31,13.74,13.74,0,0,1-5.49,6.23h0l5.26-3.06c4.63-2.69,7.5-8.41,7.53-16.54C458.48,372.57,458.46,371.91,458.43,371.25Z"/><ellipse class="cls-28" cx="427.43" cy="361.4" rx="21.05" ry="36.34" transform="translate(-123.71 263.7) rotate(-30.16)"/><path class="cls-4" d="M436.13,368.62h0a6.73,6.73,0,0,0,.23-1.07l0-.12a.37.37,0,0,1,0-.11c0-.32.06-.64.06-1v-.14a1.64,1.64,0,0,0,0-.22c0-.24,0-.48,0-.72,0-.05,0-.09,0-.14s0-.16,0-.24a5.62,5.62,0,0,0-.09-.57,1.52,1.52,0,0,0,0-.21,1.94,1.94,0,0,0-.05-.2c0-.18-.08-.37-.13-.56s0-.16-.06-.25,0-.1,0-.15c-.07-.21-.13-.42-.2-.63l-.09-.26,0-.08c-.12-.35-.26-.7-.41-1v0l0-.08c-.16-.37-.35-.74-.54-1.11l-.08-.15a1,1,0,0,1-.08-.14c-.16-.28-.32-.55-.49-.82l-.11-.18c-.21-.32-.43-.64-.66-1l0-.07-.07-.07a16.34,16.34,0,0,0-1.2-1.4l-.05-.06c0-.06-.11-.1-.16-.16l-.55-.51-.27-.24-.62-.49-.17-.13-.05,0c-.26-.18-.53-.36-.8-.51l-.23-.13a1.63,1.63,0,0,0-.19-.09c-.18-.1-.37-.18-.55-.26l-.15-.07-.16-.05a4,4,0,0,0-.45-.15l-.19-.07-.12,0a3.25,3.25,0,0,0-.43-.08.79.79,0,0,0-.2,0h-.08a4.26,4.26,0,0,0-.5,0h-.2a5.36,5.36,0,0,0-.7.09h0l-.08,0a3,3,0,0,0-.67.25l-.1,0-.14.08-1.85,1.08a1,1,0,0,1,.23-.11,3.18,3.18,0,0,1,.67-.25l.13,0a5,5,0,0,1,.69-.09h.2a4.18,4.18,0,0,1,.5,0l.29.05a3.1,3.1,0,0,1,.42.08,1.92,1.92,0,0,1,.32.09l.44.14.31.13c.18.08.37.16.55.26a4.23,4.23,0,0,1,.42.22c.27.15.54.33.8.51l.22.16c.21.16.42.32.62.49l.27.24c.19.16.37.34.55.51a2.28,2.28,0,0,0,.22.22,14.64,14.64,0,0,1,1.19,1.4l.12.14c.23.31.45.63.66.95l.11.18c.17.27.33.54.49.82l.16.29c.19.37.38.74.54,1.11a.93.93,0,0,1,.05.1c.15.34.29.69.41,1l.12.34c.07.21.14.42.2.64s.07.26.1.39.1.38.14.57.05.26.08.39l.09.58c0,.13,0,.26,0,.38s0,.48,0,.72,0,.24,0,.36c0,.35,0,.67-.06,1l0,.23a6.72,6.72,0,0,1-.24,1.07h0a4.63,4.63,0,0,1-.4.9,1.09,1.09,0,0,1-.08.15,3.67,3.67,0,0,1-.52.69l-.12.12a3.66,3.66,0,0,1-.67.52l1.86-1.08a3.66,3.66,0,0,0,.67-.52l.12-.12a4.15,4.15,0,0,0,.52-.69l.08-.15A5.58,5.58,0,0,0,436.13,368.62Z"/><path class="cls-5" d="M427.56,354.87c4.11,2.31,7.44,7.92,7.42,12.53s-3.35,6.48-7.47,4.16-7.45-7.93-7.44-12.55S423.44,352.55,427.56,354.87Z"/><path class="cls-4" d="M430.41,367.44a2.83,2.83,0,0,0,.14-.41,2.38,2.38,0,0,0,.05-.26.7.7,0,0,0,0-.14,3.48,3.48,0,0,0,0-.57V366a3.6,3.6,0,0,0,0-.56,1.52,1.52,0,0,0,0-.21.77.77,0,0,0,0-.15l0-.18a4.87,4.87,0,0,0-.12-.52s0-.08,0-.12,0-.09,0-.14l-.09-.28-.21-.53s0,0,0-.05v0c-.1-.24-.22-.47-.34-.7l-.05-.07a11.61,11.61,0,0,0-.65-1l0,0-.22-.26c-.14-.17-.27-.33-.42-.48l-.05-.06-.16-.14a5.3,5.3,0,0,0-.63-.54.69.69,0,0,0-.13-.11,4.17,4.17,0,0,0-.44-.29l-.12-.07c-.16-.08-.32-.16-.47-.22l-.13,0-.12,0-.17-.06a2.66,2.66,0,0,0-.39-.07h-.39a1.54,1.54,0,0,0-.3,0h-.1a2.18,2.18,0,0,0-.45.16l-.07,0L344.57,405.7l-83.5,48.71a2,2,0,0,1,.55-.2h.07a2.38,2.38,0,0,1,.54,0h.09a2.9,2.9,0,0,1,.62.14l.12,0a4.53,4.53,0,0,1,.72.33,6.58,6.58,0,0,1,.57.4,6.42,6.42,0,0,1,.63.54c.07.07.15.13.21.2a4.72,4.72,0,0,1,.41.48,3.73,3.73,0,0,1,.26.3,11.61,11.61,0,0,1,.65,1c.14.26.28.52.4.79,0,0,0,0,0,.05.11.27.21.54.3.82l0,.13c.08.28.14.55.19.82a.77.77,0,0,1,0,.15,6.22,6.22,0,0,1,.07.85,3.88,3.88,0,0,1-.07.71,2,2,0,0,1-.05.26,2.47,2.47,0,0,1-.14.41.85.85,0,0,1-.09.22,2.46,2.46,0,0,1-.22.34,1.71,1.71,0,0,1-.11.14,2.11,2.11,0,0,1-.43.36l163.12-95.17a1.79,1.79,0,0,0,.43-.35,1.71,1.71,0,0,0,.11-.14,2.46,2.46,0,0,0,.22-.34A2,2,0,0,0,430.41,367.44Z"/><path class="cls-27" d="M276.4,476.16c0-.2,0-.41,0-.61,0-.45-.08-.92-.12-1.38s-.05-.65-.09-1-.1-.59-.14-.89-.08-.54-.13-.82-.05-.4-.09-.6c-.12-.68-.26-1.35-.41-2l0-.13-.06-.27c-.12-.49-.24-1-.37-1.48s-.25-.91-.39-1.36c0-.09-.05-.18-.08-.26a.94.94,0,0,0,0-.16c-.17-.55-.35-1.11-.54-1.66-.13-.38-.27-.76-.41-1.14,0-.09-.06-.18-.1-.28a1.72,1.72,0,0,0-.07-.21c-.2-.53-.41-1.05-.62-1.58s-.33-.77-.49-1.15a1.47,1.47,0,0,0-.1-.22.87.87,0,0,0-.07-.17c-.22-.52-.46-1-.7-1.53s-.41-.84-.62-1.26l-.07-.15s0-.07-.05-.1c-.26-.5-.52-1-.79-1.5s-.51-.91-.77-1.37a.25.25,0,0,0,0-.07l0,0c-.29-.5-.58-1-.89-1.49s-.57-.91-.86-1.36l-.06-.08,0,0c-.33-.51-.67-1-1-1.5s-.51-.71-.77-1.06c-.08-.11-.15-.22-.23-.32l-.15-.21c-.43-.58-.87-1.14-1.32-1.7l-.35-.42-.58-.69-.69-.82c-.18-.21-.38-.4-.57-.6-.43-.48-.87-.94-1.31-1.4-.2-.2-.39-.42-.59-.62s-.43-.41-.65-.61L258,439c-.5-.45-1-.89-1.52-1.32-.26-.23-.53-.46-.8-.67-.63-.51-1.27-1-1.92-1.45l-.46-.34c-.75-.52-1.51-1-2.28-1.46l-.3-.18c-.45-.26-.91-.51-1.36-.74l-.43-.22-.91-.44-.05,0-.12-.05c-.6-.27-1.2-.51-1.79-.72l-.21-.09-.14,0c-.52-.18-1-.34-1.54-.48l0,0-.26-.06c-.36-.09-.72-.18-1.08-.25l-.17,0-.34-.06-.74-.12-.24,0-.31,0-.66-.06-.27,0h-1.17l-.26,0-.54,0-.29,0-.26,0-.51.07-.27,0-.27.06-.49.1-.25.05-.27.07-.48.14-.22.06-.28.11-.46.17-.2.07-.27.13-.46.21-.19.09c-.18.09-.35.19-.52.29h0l-5.26,3.06c.23-.14.47-.26.71-.38l.46-.21.47-.21.46-.17.5-.16.48-.14.52-.13.49-.1.53-.08.52-.07.55-.05.54,0h.55l.6,0a5.07,5.07,0,0,1,.55,0l.66.05.54.07.75.12.51.1c.36.07.72.16,1.08.25l.31.08c.51.14,1,.3,1.54.48l.35.13c.59.22,1.18.46,1.79.73l.17.07.91.44.43.22c.45.23.91.48,1.36.74.87.5,1.73,1.05,2.58,1.64l.46.34q1,.69,1.92,1.44l.8.68c.51.43,1,.86,1.52,1.32l.84.79,1.24,1.24c.44.46.88.92,1.31,1.4s.85.94,1.26,1.42l.58.69c.62.76,1.23,1.53,1.82,2.32l.23.33c.62.85,1.23,1.72,1.81,2.6l.06.09c.61.95,1.21,1.91,1.77,2.89a.21.21,0,0,0,0,.06c.56,1,1.1,2,1.61,3l.07.14c.49,1,.95,2,1.39,3a2.29,2.29,0,0,0,.1.23c.42,1,.82,1.95,1.18,2.94,0,.09.07.19.1.28.36,1,.69,2,1,3,0,.09.05.18.08.27.28.94.53,1.89.75,2.84a2.68,2.68,0,0,1,.07.27q.31,1.38.54,2.76c.05.27.09.55.13.82.09.63.16,1.24.22,1.86.05.46.1.92.13,1.38.06.87.1,1.73.1,2.58,0,8.13-2.89,13.85-7.52,16.54l5.26-3.06c4.63-2.69,7.5-8.41,7.52-16.54C276.45,477.48,276.44,476.82,276.4,476.16Z"/><path class="cls-28" d="M245.49,436.68c14.25,8.23,25.75,28.15,25.7,44.51s-11.62,23-25.87,14.74-25.73-28.14-25.68-44.5S231.26,428.46,245.49,436.68Z"/><path class="cls-27" d="M265.7,477.23c0-.16,0-.33,0-.49,0-.36-.06-.73-.1-1.1s0-.52-.07-.78-.08-.48-.11-.71-.07-.44-.1-.66,0-.32-.08-.48c-.1-.54-.21-1.09-.33-1.63l0-.11a1.6,1.6,0,0,0,0-.21c-.09-.39-.19-.79-.29-1.18s-.21-.73-.32-1.1l-.06-.21,0-.12c-.14-.44-.28-.89-.43-1.33l-.33-.92c0-.07-.05-.14-.08-.22l-.06-.16c-.16-.43-.33-.85-.5-1.27s-.26-.62-.39-.93l-.08-.18s0-.08-.05-.13c-.18-.41-.37-.82-.56-1.22l-.51-1a.37.37,0,0,0-.05-.11s0,0,0-.08q-.3-.6-.63-1.2c-.2-.37-.41-.74-.62-1.11l0-.05,0,0c-.23-.4-.47-.8-.71-1.19l-.7-1.1,0-.06,0,0c-.26-.4-.54-.8-.81-1.2s-.41-.57-.62-.85l-.18-.26-.12-.16c-.35-.47-.7-.92-1.06-1.36-.09-.12-.19-.23-.28-.34s-.31-.37-.47-.55-.36-.45-.55-.66l-.45-.48c-.35-.39-.7-.76-1.06-1.13-.15-.16-.3-.33-.46-.49s-.35-.33-.53-.49l-.67-.64c-.4-.37-.81-.72-1.22-1.06-.21-.18-.42-.37-.64-.54-.51-.41-1-.79-1.54-1.16l-.37-.27c-.6-.42-1.21-.81-1.82-1.17l-.24-.14c-.69-.4-1.38-.75-2.05-1.07l-.1,0-.06,0c-.57-.26-1.14-.49-1.69-.69l-.18-.06-.37-.11-.84-.27-.68-.16-.32-.07-.21,0c-.35-.07-.71-.13-1.06-.17l-.39,0-.26,0-.34,0c-.32,0-.63,0-.94,0l-.31,0h-.21l-.35,0c-.28,0-.56.06-.84.1l-.32.07-.19,0a2.47,2.47,0,0,0-.29.06,6.39,6.39,0,0,0-.78.22L232,441l-.18.07-.24.09c-.25.1-.49.22-.74.34l-.41.23-4.22,2.45a10.51,10.51,0,0,1,1.4-.66l.18-.07a10.73,10.73,0,0,1,1.4-.4l.2,0a10.6,10.6,0,0,1,1.5-.19h.22a12,12,0,0,1,1.58,0l.26,0a14.42,14.42,0,0,1,1.67.26l.31.07c.5.12,1,.26,1.53.43l.37.11q.94.33,1.92.78l.1,0c.68.32,1.36.67,2.05,1.07s1.39.84,2.07,1.31l.36.27c.52.37,1,.75,1.54,1.16.22.17.43.36.65.54.41.34.81.69,1.21,1.06l.68.64,1,1c.35.36.71.73,1,1.11s.68.76,1,1.15c.15.18.31.36.46.55.5.6,1,1.22,1.46,1.86l.19.26c.5.68,1,1.38,1.45,2.09a.43.43,0,0,1,0,.07c.5.75,1,1.53,1.42,2.31l0,0c.45.78.88,1.58,1.29,2.38l.06.12c.39.79.77,1.58,1.12,2.37l.07.18c.34.78.66,1.57.95,2.36,0,.08.06.15.08.22.29.79.56,1.58.8,2.37l.06.21c.22.76.43,1.52.6,2.28l.06.21c.17.75.31,1.48.43,2.22,0,.22.07.44.1.66.08.5.13,1,.18,1.49s.08.74.1,1.11c.05.69.09,1.38.08,2.06,0,6.52-2.31,11.1-6,13.25l4.22-2.45c3.7-2.15,6-6.73,6-13.25C265.74,478.29,265.73,477.76,265.7,477.23Z"/><path class="cls-28" d="M240.93,445.6c11.41,6.59,20.63,22.55,20.59,35.66s-9.31,18.4-20.72,11.81-20.62-22.54-20.58-35.66S229.53,439,240.93,445.6Z"/><path class="cls-27" d="M256.92,479.87c0-.12,0-.25,0-.38,0-.29-.05-.59-.08-.88s0-.42-.05-.63l-.09-.56c0-.18-.05-.36-.08-.53l-.06-.38c-.08-.44-.17-.87-.27-1.3a.29.29,0,0,0,0-.09c0-.06,0-.12,0-.17-.07-.32-.15-.63-.23-.94l-.25-.88a.84.84,0,0,1-.05-.17l0-.09c-.11-.36-.22-.71-.34-1.07l-.27-.73-.06-.17s0-.09-.05-.13c-.12-.34-.26-.68-.39-1s-.21-.5-.32-.74l-.06-.14,0-.1-.45-1-.4-.82-.05-.09,0-.06c-.16-.32-.33-.64-.5-.95s-.33-.6-.5-.9l0,0v0l-.57-.95c-.18-.3-.37-.59-.56-.88l0,0,0,0-.65-1-.49-.68-.15-.21-.09-.13-.84-1.08c-.08-.1-.16-.18-.23-.28l-.37-.44-.44-.52-.37-.39c-.27-.3-.55-.6-.84-.89-.12-.13-.24-.27-.37-.4l-.42-.39-.54-.51-1-.85-.51-.42q-.62-.5-1.23-.93l-.29-.22c-.48-.33-1-.64-1.46-.93l-.19-.11a19.11,19.11,0,0,0-1.73-.9h0a13.83,13.83,0,0,0-1.36-.55l-.14,0-.29-.09c-.23-.07-.45-.15-.68-.21l-.54-.13-.25-.06-.17,0c-.29-.06-.57-.1-.85-.14l-.31,0-.21,0-.27,0c-.25,0-.5,0-.75,0h-.7c-.22,0-.45.05-.67.09l-.25.05-.15,0-.24.05a6.32,6.32,0,0,0-.62.18l-.27.1-.14.05-.19.07a6.36,6.36,0,0,0-.59.28,1.74,1.74,0,0,0-.33.18l-3.37,2a8.7,8.7,0,0,1,1.11-.53l.15-.05a8,8,0,0,1,1.12-.32l.15,0a9.29,9.29,0,0,1,1.21-.16h.17a10.66,10.66,0,0,1,1.26,0l.21,0a12.58,12.58,0,0,1,1.33.2l.25.06c.4.09.81.21,1.22.34l.3.1a14.61,14.61,0,0,1,1.52.61c.57.26,1.15.56,1.74.89s1.1.67,1.64,1.05l.29.21q.63.45,1.23.93l.52.43c.32.27.65.55,1,.85s.37.33.55.51l.79.78.84.9c.27.3.54.6.8.91l.37.44c.4.49.79,1,1.17,1.49.05.06.09.13.14.2.4.55.79,1.1,1.16,1.67l0,.05c.39.61.77,1.23,1.13,1.85l0,0c.37.63.71,1.26,1,1.91a.59.59,0,0,0,0,.08c.32.63.61,1.27.89,1.91a.75.75,0,0,1,.06.13c.28.63.53,1.26.76,1.89a1.34,1.34,0,0,1,.07.18q.34.95.63,1.89c0,.05,0,.11.05.16.18.61.34,1.22.48,1.82,0,.06,0,.12.05.18.13.59.25,1.18.34,1.77,0,.17.06.35.08.52.06.4.11.8.15,1.19s.06.59.08.88c0,.56.07,1.11.06,1.66,0,5.19-1.85,8.85-4.8,10.56l3.36-2c3-1.72,4.79-5.37,4.81-10.57C257,480.72,256.94,480.3,256.92,479.87Z"/><path class="cls-28" d="M237.15,454.62c9.1,5.26,16.46,18,16.43,28.48s-7.44,14.67-16.54,9.42-16.47-18-16.44-28.47S228,449.37,237.15,454.62Z"/><path class="cls-4" d="M245.08,479.74h0a6.72,6.72,0,0,0,.24-1.07s0-.08,0-.12a.45.45,0,0,0,0-.11,7.86,7.86,0,0,0,.06-1v-.14c0-.07,0-.15,0-.22,0-.24,0-.48-.05-.72a.71.71,0,0,0,0-.14,1.6,1.6,0,0,0,0-.23l-.09-.58,0-.21a1.33,1.33,0,0,1-.05-.19c0-.19-.09-.38-.13-.57a1.83,1.83,0,0,1-.06-.25,1.21,1.21,0,0,1,0-.14c-.06-.22-.13-.43-.2-.64s0-.17-.08-.26l0-.08c-.13-.35-.27-.7-.42-1v0l0-.07c-.17-.38-.36-.75-.55-1.12l-.08-.15a1,1,0,0,0-.08-.14c-.15-.28-.32-.55-.49-.82a1.74,1.74,0,0,0-.11-.18c-.21-.32-.43-.64-.66-.95l0-.06-.06-.08a18,18,0,0,0-1.2-1.4l-.06-.06-.16-.16-.55-.51-.27-.24c-.2-.17-.41-.33-.62-.49l-.16-.12-.05,0c-.27-.18-.53-.36-.81-.51l-.22-.13-.2-.09c-.18-.1-.36-.18-.54-.26l-.16-.07-.16-.05-.44-.15-.19-.07-.12,0a3.58,3.58,0,0,0-.43-.08.78.78,0,0,0-.21,0h-.08a4.18,4.18,0,0,0-.5,0h-.19a3.82,3.82,0,0,0-.7.09h0l-.09,0a3.84,3.84,0,0,0-.67.25l-.09,0-.14.08-1.86,1.08.23-.11a3.4,3.4,0,0,1,.67-.25l.13,0a3.94,3.94,0,0,1,.7-.1h.2a4.1,4.1,0,0,1,.49,0l.29.05a3.58,3.58,0,0,1,.43.08l.31.09a4,4,0,0,1,.45.15l.31.12c.18.08.36.16.54.26a4.37,4.37,0,0,1,.43.22c.27.15.54.33.8.51l.21.16c.21.16.42.32.62.49l.28.24.54.51.22.22a16.34,16.34,0,0,1,1.2,1.4,1.34,1.34,0,0,1,.11.14c.23.31.45.63.66.95l.12.18c.17.27.33.54.48.82l.16.29c.2.37.38.74.55,1.11a.31.31,0,0,0,0,.1c.15.34.28.69.41,1,0,.11.07.23.11.34s.14.42.2.64.07.26.11.39.09.38.13.57.06.26.08.39l.09.58c0,.13,0,.26.05.38s0,.48,0,.72,0,.24,0,.36c0,.35,0,.67-.07,1l0,.23a6.72,6.72,0,0,1-.24,1.07h0a4.61,4.61,0,0,1-.39.9l-.09.15a3.29,3.29,0,0,1-.52.69l-.11.12a3.41,3.41,0,0,1-.68.52l1.86-1.08a3.09,3.09,0,0,0,.67-.52l.12-.12a3.67,3.67,0,0,0,.52-.69s.06-.1.09-.15A5.56,5.56,0,0,0,245.08,479.74Z"/><path class="cls-5" d="M236.51,466c4.12,2.31,7.44,7.92,7.43,12.53s-3.36,6.48-7.48,4.17S229,474.75,229,470.13,232.39,463.67,236.51,466Z"/><path class="cls-4" d="M239.69,477.15a2.6,2.6,0,0,1-1.18,2.46.19.19,0,0,1-.1.05l-16.32,9.48a2.07,2.07,0,0,0,.44-.34c0-.05.06-.11.1-.14s.16-.23.23-.35.06-.14.09-.22a3.31,3.31,0,0,0,.13-.41,1.11,1.11,0,0,0,0-.25,4,4,0,0,0,.07-.73,6.2,6.2,0,0,0-.07-.84.59.59,0,0,0,0-.14,5.44,5.44,0,0,0-.19-.82,1.13,1.13,0,0,0,0-.15c-.09-.27-.18-.54-.3-.81,0,0,0,0,0,0a5.27,5.27,0,0,0-.39-.79,8.84,8.84,0,0,0-.65-1l-.25-.3c-.14-.16-.27-.33-.41-.48l-.22-.19a8,8,0,0,0-.62-.56c-.2-.13-.38-.27-.58-.39s-.49-.24-.71-.33l-.12,0a2.44,2.44,0,0,0-.63-.13h-.08a1.6,1.6,0,0,0-.54,0h-.08a2.64,2.64,0,0,0-.54.21L233,470.49a.42.42,0,0,1,.12-.08l.29-.16a2.79,2.79,0,0,1,2.51.36A8.31,8.31,0,0,1,239.69,477.15Z"/><path class="cls-5" d="M219.43,480.17a8.32,8.32,0,0,1,3.78,6.54c0,2.41-1.71,3.38-3.8,2.17a8.35,8.35,0,0,1-3.79-6.55C215.63,479.92,217.34,479,219.43,480.17Z"/><g class="cls-19"><g class="cls-19"><g class="cls-29"><g class="cls-19"><path class="cls-21" d="M94.37,270.87v6.39a2,2,0,0,0,0-.23l0-6.39a1.69,1.69,0,0,1,0,.23"/><path class="cls-22" d="M94.36,270.64l0,6.39a1.84,1.84,0,0,0-.26-.68l0-6.39a1.84,1.84,0,0,1,.26.68"/><path class="cls-23" d="M94.1,270l0,6.39a2.7,2.7,0,0,0-.53-.61v-6.39a2.52,2.52,0,0,1,.54.61"/><path class="cls-24" d="M93.56,269.35v6.39a4.07,4.07,0,0,0-.57-.39,5.62,5.62,0,0,0-.78-.37l0-6.39A7,7,0,0,1,93,269a4.24,4.24,0,0,1,.56.4"/><path class="cls-6" d="M92.22,268.59l0,6.39a6.92,6.92,0,0,0-1.15-.3l0-6.39a6.92,6.92,0,0,1,1.15.3"/><path class="cls-24" d="M91.07,268.29l0,6.39a8.15,8.15,0,0,0-1.85-.11l0-6.39a8.15,8.15,0,0,1,1.85.11"/><path class="cls-23" d="M89.22,268.18l0,6.39a8.6,8.6,0,0,0-1.15.16v-6.39a8.75,8.75,0,0,1,1.16-.16"/><path class="cls-22" d="M88.06,268.34v6.39a5.84,5.84,0,0,0-1,.33l0-6.39a6,6,0,0,1,1-.33"/><path class="cls-21" d="M87,268.67l0,6.39a3.59,3.59,0,0,0-.59.29,2.29,2.29,0,0,0-1.35,1.89l0-6.39A2.3,2.3,0,0,1,86.42,269a4.15,4.15,0,0,1,.6-.29"/></g></g></g><g class="cls-19"><g class="cls-30"><g class="cls-19"><path class="cls-21" d="M118.9,270.94v6.39c0,4.3-2.84,8.6-8.48,11.88a32.9,32.9,0,0,1-3.72,1.82l0-6.39a30.46,30.46,0,0,0,3.71-1.83c5.65-3.27,8.47-7.57,8.48-11.87"/><path class="cls-22" d="M106.71,284.64l0,6.39a38.85,38.85,0,0,1-6.56,2l0-6.39a39.14,39.14,0,0,0,6.56-2"/><path class="cls-23" d="M100.15,286.67l0,6.39a47.54,47.54,0,0,1-7.22,1l0-6.39a47.71,47.71,0,0,0,7.22-1"/><path class="cls-24" d="M92.93,287.67l0,6.39a50.07,50.07,0,0,1-11.62-.64l0-6.39a50.07,50.07,0,0,0,11.62.64"/><path class="cls-6" d="M81.31,287l0,6.39A41.3,41.3,0,0,1,74,291.48l0-6.39A41.3,41.3,0,0,0,81.31,287"/><path class="cls-24" d="M74.06,285.09l0,6.39a31.85,31.85,0,0,1-4.9-2.28,24.5,24.5,0,0,1-3.54-2.47l0-6.39a23.45,23.45,0,0,0,3.54,2.47,31.85,31.85,0,0,0,4.9,2.28"/><path class="cls-23" d="M65.62,280.34l0,6.39a16.58,16.58,0,0,1-3.36-3.81l0-6.39a16.12,16.12,0,0,0,3.36,3.81"/><path class="cls-22" d="M62.26,276.53l0,6.39a11.36,11.36,0,0,1-1.6-4.25l0-6.39a11.19,11.19,0,0,0,1.6,4.25"/><path class="cls-21" d="M60.66,272.28l0,6.39a10.81,10.81,0,0,1-.11-1.5l0-6.39a9.47,9.47,0,0,0,.11,1.5"/></g></g></g><path class="cls-26" d="M110.29,258.91c11.43,6.6,11.49,17.3.13,23.9s-29.83,6.6-41.26,0-11.49-17.3-.13-23.9S98.86,252.31,110.29,258.91ZM86.44,272.76a7.27,7.27,0,0,0,6.58,0c1.81-1.06,1.8-2.76,0-3.82a7.27,7.27,0,0,0-6.58,0c-1.8,1.05-1.79,2.76,0,3.8"/></g><g class="cls-19"><g class="cls-19"><g class="cls-31"><g class="cls-19"><path class="cls-21" d="M93.09,267.8l0,4.62a1,1,0,0,0,0-.17v-4.62a.88.88,0,0,1,0,.17"/><path class="cls-22" d="M93.07,267.63v4.62a1.53,1.53,0,0,0-.18-.49v-4.62a1.17,1.17,0,0,1,.18.49"/><path class="cls-23" d="M92.89,267.14v4.62a2.24,2.24,0,0,0-.39-.44V266.7a2,2,0,0,1,.39.44"/><path class="cls-24" d="M92.5,266.7v4.62a3.3,3.3,0,0,0-.41-.29,4.79,4.79,0,0,0-.56-.26v-4.62a3.2,3.2,0,0,1,.56.26,3.3,3.3,0,0,1,.41.29"/><path class="cls-6" d="M91.53,266.15v4.62a5.75,5.75,0,0,0-.84-.22l0-4.62a4.4,4.4,0,0,1,.83.22"/><path class="cls-24" d="M90.7,265.93l0,4.62a5.43,5.43,0,0,0-1.34-.07l0-4.63a6,6,0,0,1,1.34.08"/><path class="cls-23" d="M89.36,265.85l0,4.63a4.6,4.6,0,0,0-.83.11V266a5.66,5.66,0,0,1,.84-.12"/><path class="cls-22" d="M88.52,266v4.62a4.5,4.5,0,0,0-.76.24l0-4.63a4.37,4.37,0,0,1,.75-.23"/><path class="cls-21" d="M87.77,266.2l0,4.63a3.42,3.42,0,0,0-.43.21,1.65,1.65,0,0,0-1,1.37v-4.63a1.68,1.68,0,0,1,1-1.37l.43-.21"/></g></g></g><g class="cls-19"><g class="cls-32"><g class="cls-19"><path class="cls-21" d="M110.83,267.85v4.62c0,3.11-2.06,6.22-6.14,8.59a21.67,21.67,0,0,1-2.69,1.32v-4.62a22.53,22.53,0,0,0,2.7-1.32c4.08-2.38,6.12-5.48,6.13-8.59"/><path class="cls-22" d="M102,277.76v4.62a27.65,27.65,0,0,1-4.75,1.47l0-4.62a27.54,27.54,0,0,0,4.74-1.47"/><path class="cls-23" d="M97.26,279.23l0,4.62a34.35,34.35,0,0,1-5.22.72V280a34.48,34.48,0,0,0,5.23-.72"/><path class="cls-24" d="M92,280v4.62a35.68,35.68,0,0,1-8.4-.46l0-4.62A36.11,36.11,0,0,0,92,280"/><path class="cls-6" d="M83.64,279.49l0,4.62a30.32,30.32,0,0,1-5.24-1.4v-4.62a30.19,30.19,0,0,0,5.25,1.4"/><path class="cls-24" d="M78.39,278.09v4.62a24.07,24.07,0,0,1-3.55-1.65,17.21,17.21,0,0,1-2.56-1.79v-4.62a17.72,17.72,0,0,0,2.56,1.78,23.12,23.12,0,0,0,3.55,1.66"/><path class="cls-23" d="M72.28,274.65v4.62a11.62,11.62,0,0,1-2.43-2.76v-4.62a11.84,11.84,0,0,0,2.43,2.76"/><path class="cls-22" d="M69.85,271.89v4.62a8,8,0,0,1-1.16-3.08v-4.62a8.2,8.2,0,0,0,1.16,3.08"/><path class="cls-21" d="M68.69,268.81v4.62a6.54,6.54,0,0,1-.08-1.08v-4.62a7.85,7.85,0,0,0,.08,1.08"/></g></g></g><path class="cls-26" d="M104.6,259.14c8.27,4.78,8.31,12.52.1,17.3s-21.58,4.77-29.86,0-8.32-12.51-.09-17.29S96.33,254.37,104.6,259.14Zm-17.25,10a5.25,5.25,0,0,0,4.76,0c1.31-.77,1.3-2,0-2.76a5.23,5.23,0,0,0-4.75,0c-1.31.76-1.3,2,0,2.76"/></g></g></g></svg>